<svg width="32" height="32" viewBox="0 0 32 32" fill="none" xmlns="http://www.w3.org/2000/svg">
<path d="M23.8933 8.82667C23.758 8.50087 23.4991 8.24197 23.1733 8.10667C23.013 8.03835 22.8409 8.00211 22.6666 8H9.33331C8.97969 8 8.64055 8.14048 8.3905 8.39052C8.14046 8.64057 7.99998 8.97971 7.99998 9.33333C7.99998 9.68696 8.14046 10.0261 8.3905 10.2761C8.64055 10.5262 8.97969 10.6667 9.33331 10.6667H19.4533L8.38665 21.72C8.26168 21.844 8.16248 21.9914 8.09479 22.1539C8.0271 22.3164 7.99225 22.4907 7.99225 22.6667C7.99225 22.8427 8.0271 23.017 8.09479 23.1794C8.16248 23.3419 8.26168 23.4894 8.38665 23.6133C8.5106 23.7383 8.65806 23.8375 8.82054 23.9052C8.98302 23.9729 9.1573 24.0077 9.33331 24.0077C9.50933 24.0077 9.6836 23.9729 9.84608 23.9052C10.0086 23.8375 10.156 23.7383 10.28 23.6133L21.3333 12.5467V22.6667C21.3333 23.0203 21.4738 23.3594 21.7238 23.6095C21.9739 23.8595 22.313 24 22.6666 24C23.0203 24 23.3594 23.8595 23.6095 23.6095C23.8595 23.3594 24 23.0203 24 22.6667V9.33333C23.9979 9.1591 23.9616 8.98696 23.8933 8.82667Z" fill="#F44336"/>
</svg>
