<svg width="32" height="32" viewBox="0 0 32 32" fill="none" xmlns="http://www.w3.org/2000/svg">
<path d="M10.1412 9.54673V27.0124C10.1412 27.4467 10.4943 27.803 10.9318 27.803H16.4193C16.8537 27.803 17.2099 27.4499 17.2099 27.0124V9.54673H10.1412ZM13.6724 25.6655C12.8693 25.6655 12.2193 25.0124 12.2193 24.2124C12.2193 23.4092 12.8724 22.7561 13.6724 22.7561C14.4756 22.7561 15.1287 23.4092 15.1287 24.2124C15.1287 25.0124 14.4756 25.6655 13.6724 25.6655ZM17.2068 5.64048V8.44985H10.1412V5.64048C10.1412 5.2061 10.4943 4.84985 10.9318 4.84985H16.4193C16.8537 4.84985 17.2068 5.2061 17.2068 5.64048ZM2.23181 13.4999V27.0155C2.23181 27.4499 2.58494 27.8061 3.02244 27.8061H8.50994C8.94431 27.8061 9.30056 27.453 9.30056 27.0155V13.4999H2.23181ZM5.76619 25.6655C4.96306 25.6655 4.31306 25.0124 4.31306 24.2124C4.31306 23.4092 4.96619 22.7561 5.76619 22.7561C6.56931 22.7561 7.22244 23.4092 7.22244 24.2124C7.22244 25.0124 6.56931 25.6655 5.76619 25.6655ZM9.30056 9.5936V12.403H2.23181V9.5936C2.23181 9.15923 2.58494 8.80298 3.02244 8.80298H8.50994C8.94744 8.80298 9.30056 9.1561 9.30056 9.5936ZM25.5818 7.55923L25.1818 7.65298L24.7818 7.74673L19.5006 8.96235L19.1006 9.0561L18.7006 9.14985L18.0693 6.41235C17.9724 5.98735 18.2381 5.56235 18.6599 5.46548L24.0099 4.23423C24.2162 4.18735 24.4256 4.22173 24.6068 4.33423C24.7849 4.44673 24.9099 4.62173 24.9568 4.82485L25.5818 7.55923ZM29.7474 25.653L25.8287 8.6311L25.4287 8.72485L25.0287 8.8186L19.7474 10.0342L19.3474 10.128L18.9474 10.2217L22.8662 27.2436C22.9506 27.6092 23.2756 27.8561 23.6349 27.8561C23.6943 27.8561 23.7537 27.8499 23.8131 27.8342L29.1568 26.5999C29.3631 26.553 29.5381 26.428 29.6474 26.2499C29.7599 26.0686 29.7943 25.8592 29.7474 25.653ZM26.0006 25.1311C25.8912 25.1561 25.7818 25.1686 25.6756 25.1686C25.0131 25.1686 24.4131 24.7124 24.2568 24.0405C24.1693 23.6624 24.2349 23.2717 24.4412 22.9436C24.6474 22.6155 24.9693 22.3842 25.3474 22.2967C26.1287 22.1155 26.9099 22.6061 27.0912 23.3874C27.2724 24.1686 26.7818 24.9499 26.0006 25.1311Z" fill="#292D32"/>
</svg>
