<svg width="56" height="56" viewBox="0 0 56 56" fill="none" xmlns="http://www.w3.org/2000/svg">
<g clip-path="url(#clip0_634_111498)">
<path d="M50.5912 15.4261H44.9635V13.3091C44.9635 12.3121 44.1488 11.4975 43.1466 11.4975H43.0822V6.59332C43.0822 3.32389 40.4239 0.665527 37.1544 0.665527H18.851C15.5815 0.665527 12.9232 3.324 12.9232 6.59332V11.4975H12.8535C11.8566 11.4975 11.0419 12.3121 11.0419 13.3091V15.4261H5.40879C2.88966 15.4261 0.836914 17.4789 0.836914 19.998V50.7574C0.836914 53.2818 2.88966 55.3347 5.40879 55.3347H50.5912C53.1156 55.3347 55.163 53.2819 55.163 50.7574V19.9979C55.163 17.4789 53.1156 15.4261 50.5912 15.4261ZM43.1466 12.5694C44.3096 12.5694 43.7575 14.2791 43.8915 15.426H36.94C37.0739 14.2791 36.5166 12.5694 37.6849 12.5694H43.1466ZM18.3204 11.4975H18.2507V6.59332C18.2507 6.26104 18.5187 5.99843 18.851 5.99843H37.1543C37.2325 5.99829 37.3099 6.01358 37.3822 6.04342C37.4544 6.07327 37.5201 6.11708 37.5753 6.17235C37.6306 6.22761 37.6744 6.29325 37.7043 6.36549C37.7342 6.43773 37.7495 6.51516 37.7493 6.59332V11.4975H37.685C36.6827 11.4975 35.8681 12.3121 35.8681 13.3091V15.4261H20.1319V13.3091C20.1319 12.3121 19.3172 11.4975 18.3204 11.4975ZM12.1138 13.3091C12.1138 12.9017 12.4461 12.5695 12.8534 12.5695H18.3203C18.7276 12.5695 19.0599 12.9017 19.0599 13.3091V15.4261H12.1137L12.1138 13.3091ZM54.0911 50.7573C54.0911 52.6922 52.5206 54.2626 50.5912 54.2626H5.40879C3.4793 54.2626 1.9089 52.6922 1.9089 50.7573V26.9816C4.84605 36.3021 13.502 43.1036 23.7391 43.2644V44.8401C23.7391 45.8692 24.5751 46.7107 25.6042 46.7107H32.0145C33.0436 46.7107 33.885 45.8691 33.885 44.8401V43.1786C34.7693 43.1036 35.6376 42.9857 36.4898 42.8142L38.5747 47.4932C38.7462 47.8845 39.057 48.1847 39.459 48.3348C39.6412 48.4044 39.8341 48.442 40.0324 48.442C40.2522 48.442 40.4665 48.3937 40.6756 48.3026L49.3958 44.4329C49.5191 44.374 49.637 44.2668 49.6906 44.1274C49.6959 44.1114 49.7013 44.106 49.7013 44.1006L49.7066 44.0899C49.7763 43.9023 50.1783 42.8518 52.0488 37.9744V37.9691C52.097 37.8405 52.081 37.6689 52.0381 37.5618L50.457 34.0083C52.0434 31.9073 53.2869 29.5382 54.0908 26.971V50.7573H54.0911ZM48.4795 39.7271L50.5858 38.7945L49.1494 42.5195L48.2169 40.4132C48.1885 40.351 48.1728 40.2837 48.1707 40.2154C48.1686 40.1471 48.1801 40.079 48.2045 40.0151C48.2289 39.9513 48.2658 39.8929 48.313 39.8435C48.3602 39.794 48.4168 39.7544 48.4795 39.7271ZM33.8849 42.1067V40.6382C33.8849 39.609 33.0434 38.7676 32.0144 38.7676H25.6041C24.5751 38.7676 23.7389 39.6092 23.7389 40.6382V42.1925C11.6689 41.9942 1.90879 32.1162 1.90879 19.9979C1.90879 18.0684 3.4792 16.498 5.40868 16.498H50.5911C52.5205 16.498 54.0909 18.0684 54.0909 19.9979C54.0911 31.5695 45.1939 41.0937 33.8849 42.1067Z" fill="#0A0A0A"/>
</g>
<defs>
<clipPath id="clip0_634_111498">
<rect width="56" height="56" fill="white"/>
</clipPath>
</defs>
</svg>
