<svg width="18" height="18" viewBox="0 0 18 18" fill="none" xmlns="http://www.w3.org/2000/svg">
<path d="M2.67188 3.04763C2.57242 3.04763 2.47704 3.00812 2.40671 2.93779C2.33638 2.86746 2.29688 2.77208 2.29688 2.67262C2.29688 2.57317 2.33638 2.47779 2.40671 2.40746C2.47704 2.33713 2.57242 2.29762 2.67188 2.29762L15.3274 2.29688C15.4268 2.29688 15.5222 2.33638 15.5925 2.40671C15.6629 2.47704 15.7024 2.57242 15.7024 2.67188C15.7024 2.77133 15.6629 2.86671 15.5925 2.93704C15.5222 3.00737 15.4268 3.04687 15.3274 3.04687L2.67188 3.04763ZM2.67188 9.37613C2.57242 9.37613 2.47704 9.33662 2.40671 9.26629C2.33638 9.19596 2.29688 9.10058 2.29688 9.00113C2.29688 8.90167 2.33638 8.80629 2.40671 8.73596C2.47704 8.66563 2.57242 8.62613 2.67188 8.62613L15.3274 8.62462C15.4268 8.62462 15.5222 8.66413 15.5925 8.73446C15.6629 8.80479 15.7024 8.90017 15.7024 8.99962C15.7024 9.09908 15.6629 9.19446 15.5925 9.26479C15.5222 9.33512 15.4268 9.37462 15.3274 9.37462L2.67188 9.37613ZM2.67188 15.7046C2.57242 15.7046 2.47704 15.6651 2.40671 15.5948C2.33638 15.5245 2.29688 15.4291 2.29688 15.3296C2.29688 15.2302 2.33638 15.1348 2.40671 15.0645C2.47704 14.9941 2.57242 14.9546 2.67188 14.9546L15.3274 14.9531C15.4268 14.9531 15.5222 14.9926 15.5925 15.063C15.6629 15.1333 15.7024 15.2287 15.7024 15.3281C15.7024 15.4276 15.6629 15.523 15.5925 15.5933C15.5222 15.6636 15.4268 15.7031 15.3274 15.7031L2.67188 15.7046Z" fill="#0A0A0A"/>
</svg>
