<svg width="32" height="32" viewBox="0 0 32 32" fill="none" xmlns="http://www.w3.org/2000/svg">
<path d="M10.6666 2.6665V6.6665" stroke="#292D32" stroke-width="1.5" stroke-miterlimit="10" stroke-linecap="round" stroke-linejoin="round"/>
<path d="M21.3334 2.6665V6.6665" stroke="#292D32" stroke-width="1.5" stroke-miterlimit="10" stroke-linecap="round" stroke-linejoin="round"/>
<path d="M24.667 19.25C27.6571 19.2502 30.083 21.6769 30.083 24.667C30.0828 27.6569 27.6569 30.0828 24.667 30.083C21.6769 30.083 19.2502 27.6571 19.25 24.667C19.25 21.6768 21.6768 19.25 24.667 19.25Z" stroke="#292D32" stroke-width="1.5" stroke-linecap="round" stroke-linejoin="round"/>
<path d="M26.398 26.1506L24.9514 25.2873C24.6994 25.138 24.494 24.7786 24.494 24.4846V22.5713" stroke="#292D32" stroke-width="1.5" stroke-linecap="round" stroke-linejoin="round"/>
<path d="M4.66663 12.1201H27.3333" stroke="#292D32" stroke-width="1.5" stroke-miterlimit="10" stroke-linecap="round" stroke-linejoin="round"/>
<path d="M17.8267 29.3332H10.6667C6 29.3332 4 26.6665 4 22.6665V11.3332C4 7.33317 6 4.6665 10.6667 4.6665H21.3333C26 4.6665 28 7.33317 28 11.3332V17.3332" stroke="#292D32" stroke-width="1.5" stroke-miterlimit="10" stroke-linecap="round" stroke-linejoin="round"/>
<path d="M15.9939 18.2668H16.0059" stroke="#292D32" stroke-width="2" stroke-linecap="round" stroke-linejoin="round"/>
<path d="M11.0591 18.2668H11.0711" stroke="#292D32" stroke-width="2" stroke-linecap="round" stroke-linejoin="round"/>
<path d="M11.0591 22.2668H11.0711" stroke="#292D32" stroke-width="2" stroke-linecap="round" stroke-linejoin="round"/>
</svg>
