<svg width="20" height="20" viewBox="0 0 20 20" fill="none" xmlns="http://www.w3.org/2000/svg">
<path d="M10 1.66602C5.40834 1.66602 1.66667 5.40768 1.66667 9.99935C1.66667 14.591 5.40834 18.3327 10 18.3327C14.5917 18.3327 18.3333 14.591 18.3333 9.99935C18.3333 5.40768 14.5917 1.66602 10 1.66602ZM13.9833 8.08268L9.25834 12.8077C9.14167 12.9243 8.98334 12.991 8.81667 12.991C8.65001 12.991 8.49167 12.9243 8.37501 12.8077L6.01667 10.4493C5.77501 10.2077 5.77501 9.80768 6.01667 9.56602C6.25834 9.32435 6.65834 9.32435 6.90001 9.56602L8.81667 11.4827L13.1 7.19935C13.3417 6.95768 13.7417 6.95768 13.9833 7.19935C14.225 7.44102 14.225 7.83268 13.9833 8.08268Z" fill="#12B736"/>
</svg>
