<svg width="18" height="18" viewBox="0 0 18 18" fill="none" xmlns="http://www.w3.org/2000/svg">
<rect width="18" height="18" rx="9" fill="#F44336"/>
<path d="M8.5 6.0003H7.075C6.34732 5.99027 5.63896 6.23452 5.07211 6.69092C4.50526 7.14731 4.11548 7.78724 3.97 8.5003H1V9.5003H3.965C4.10793 10.2156 4.49771 10.8578 5.06621 11.3148C5.6347 11.7718 6.34574 12.0144 7.075 12.0003H8.5V6.0003Z" fill="white"/>
<path d="M14.115 8.50045C13.9692 7.78568 13.578 7.14444 13.009 6.68784C12.4401 6.23124 11.7294 5.98807 11 6.00045H9.5V12.0005H11C11.7293 12.0146 12.4403 11.772 13.0088 11.315C13.5773 10.858 13.9671 10.2157 14.11 9.50045H17V8.50045H14.115Z" fill="white"/>
</svg>
