<svg width="32" height="32" viewBox="0 0 32 32" fill="none" xmlns="http://www.w3.org/2000/svg">
<path d="M16.2426 16.1003C16.5026 16.1003 16.7726 16.0003 16.9626 15.7903L20.8626 11.6903C21.2426 11.2903 21.2326 10.6603 20.8226 10.2803C20.4226 9.90026 19.7926 9.92026 19.4126 10.3203L15.5126 14.4203C15.1326 14.8203 15.1526 15.4503 15.5526 15.8303C15.7426 16.0103 15.9926 16.1103 16.2426 16.1103V16.1003Z" fill="#787878"/>
<path d="M26.6934 10.2803C26.2934 9.90026 25.6634 9.92026 25.2834 10.3203L16.2534 19.8103L12.1034 15.4403C11.7234 15.0403 11.0934 15.0303 10.6934 15.4003C10.2934 15.7803 10.2734 16.4103 10.6534 16.8103L11.9534 18.1703L10.4034 19.8003L6.73343 15.9503C6.35343 15.5503 5.72343 15.5403 5.32343 15.9103C4.92343 16.2903 4.90343 16.9203 5.28343 17.3203L9.26343 21.5003C9.56343 21.8103 9.97343 21.9903 10.4034 21.9903C10.8334 21.9903 11.2434 21.8103 11.5434 21.5003L13.3334 19.6203L15.1234 21.5003C15.4234 21.8103 15.8334 21.9903 16.2634 21.9903C16.6934 21.9903 17.1034 21.8103 17.4034 21.5003L26.7434 11.6803C27.1234 11.2803 27.1134 10.6503 26.7034 10.2703L26.6934 10.2803Z" fill="#787878"/>
</svg>
