<svg width="32" height="32" viewBox="0 0 32 32" fill="none" xmlns="http://www.w3.org/2000/svg">
<path d="M22.07 8.58016C22.266 8.4802 22.4548 8.36659 22.635 8.24016C24.095 7.21516 24.545 5.33016 23.635 4.04016C22.725 2.75016 20.805 2.54016 19.345 3.57516C17.885 4.61016 17.135 6.44016 16.32 8.57516L22.07 8.58016ZM4.34998 15.2302H27.655V27.0802C27.655 27.6106 27.4443 28.1193 27.0692 28.4944C26.6941 28.8694 26.1854 29.0802 25.655 29.0802H6.34998C5.81954 29.0802 5.31083 28.8694 4.93576 28.4944C4.56069 28.1193 4.34998 27.6106 4.34998 27.0802V15.2302Z" stroke="#1E1E1E" stroke-width="1.5" stroke-linecap="round" stroke-linejoin="round"/>
<path d="M18.925 15.23H13.075V29.08H18.925V15.23Z" stroke="#1E1E1E" stroke-width="1.5" stroke-linecap="round" stroke-linejoin="round"/>
<path d="M9.93002 8.58016C9.73495 8.48129 9.54774 8.36762 9.37002 8.24016C7.91002 7.21516 7.45502 5.33016 8.37002 4.04016C9.28502 2.75016 11.2 2.54016 12.665 3.57516C14.13 4.61016 14.87 6.44016 15.69 8.57516L9.93002 8.58016Z" stroke="#1E1E1E" stroke-width="1.5" stroke-linecap="round" stroke-linejoin="round"/>
<path d="M27.25 8.58008H4.75C3.92157 8.58008 3.25 9.25165 3.25 10.0801V13.7301C3.25 14.5585 3.92157 15.2301 4.75 15.2301H27.25C28.0784 15.2301 28.75 14.5585 28.75 13.7301V10.0801C28.75 9.25165 28.0784 8.58008 27.25 8.58008Z" stroke="#1E1E1E" stroke-width="1.5" stroke-linecap="round" stroke-linejoin="round"/>
<path d="M19.46 8.58008H12.545V15.2301H19.46V8.58008Z" stroke="#1E1E1E" stroke-width="1.5" stroke-linecap="round" stroke-linejoin="round"/>
</svg>
