<svg width="56" height="56" viewBox="0 0 56 56" fill="none" xmlns="http://www.w3.org/2000/svg">
<path d="M55.1667 45.7647L53.1301 41.4983C53.9232 40.9302 54.4432 40.0083 54.4432 38.9632C54.4432 37.4249 53.3231 36.1493 51.8598 35.8974V22.198L53.9661 21.3941C55.7777 20.7027 55.783 18.13 53.9661 17.4333L29.6545 8.12874C28.5879 7.72141 27.4087 7.72141 26.3421 8.12874L2.03049 17.4332C0.213548 18.1299 0.208188 20.6972 2.03049 21.394L10.531 24.6473V33.4104C10.531 37.189 18.2007 40.1476 27.9983 40.1476C37.7904 40.1476 45.4656 37.189 45.4656 33.4104V24.6473L50.7878 22.6106V35.8974C49.3246 36.1493 48.2098 37.4249 48.2098 38.9632C48.2098 40.0084 48.7297 40.9302 49.5176 41.4983L47.4809 45.7647C46.945 46.8903 47.765 48.1765 49.0031 48.1765H53.65C54.888 48.1765 55.7027 46.8848 55.1667 45.7647ZM29.2739 29.6963C28.4485 30.0125 27.5427 30.0125 26.7227 29.6963L2.41111 20.3918C1.51063 20.0488 1.51063 18.7785 2.41111 18.4355L26.7228 9.13095C27.5428 8.81474 28.4486 8.81474 29.274 9.13095L53.5857 18.4355C54.4807 18.7785 54.4807 20.0488 53.5857 20.3918L29.2739 29.6963ZM49.2817 38.9632C49.2817 37.8323 50.1982 36.9158 51.3237 36.9158C52.4547 36.9158 53.3711 37.8324 53.3711 38.9632C53.3711 40.0888 52.4547 41.0052 51.3237 41.0052C50.1982 41.0052 49.2817 40.0887 49.2817 38.9632ZM53.6499 47.1045H49.003C48.5528 47.1045 48.2526 46.6383 48.451 46.2255L50.4877 41.9591C51.029 42.1145 51.5864 42.1252 52.1653 41.9591L54.2019 46.2255C54.3949 46.6383 54.1001 47.1045 53.6499 47.1045Z" fill="#0A0A0A"/>
</svg>
