<svg width="14" height="15" viewBox="0 0 14 15" fill="none" xmlns="http://www.w3.org/2000/svg">
<path d="M7 0.269531C10.8661 0.269531 14 3.40343 14 7.26953C14 11.1356 10.8661 14.2695 7 14.2695C3.1339 14.2695 0 11.1356 0 7.26953C0 3.40343 3.1339 0.269531 7 0.269531ZM7 1.24603C5.40247 1.24603 3.87037 1.88065 2.74074 3.01027C1.61112 4.1399 0.9765 5.672 0.9765 7.26953C0.9765 8.86706 1.61112 10.3992 2.74074 11.5288C3.87037 12.6584 5.40247 13.293 7 13.293C8.59753 13.293 10.1296 12.6584 11.2593 11.5288C12.3889 10.3992 13.0235 8.86706 13.0235 7.26953C13.0235 5.672 12.3889 4.1399 11.2593 3.01027C10.1296 1.88065 8.59753 1.24603 7 1.24603ZM6.8985 5.31653C7.168 5.31653 7.3864 5.53563 7.3864 5.80513V11.0957C7.38162 11.222 7.32808 11.3416 7.23704 11.4292C7.146 11.5169 7.02453 11.5658 6.89815 11.5658C6.77177 11.5658 6.6503 11.5169 6.55926 11.4292C6.46822 11.3416 6.41468 11.222 6.4099 11.0957V5.80443C6.4099 5.53493 6.6283 5.31653 6.8985 5.31653ZM6.9181 3.36283C7.09076 3.36283 7.25634 3.43142 7.37843 3.5535C7.50051 3.67559 7.5691 3.84118 7.5691 4.01383C7.5691 4.18649 7.50051 4.35207 7.37843 4.47416C7.25634 4.59624 7.09076 4.66483 6.9181 4.66483C6.74544 4.66483 6.57986 4.59624 6.45777 4.47416C6.33569 4.35207 6.2671 4.18649 6.2671 4.01383C6.2671 3.84118 6.33569 3.67559 6.45777 3.5535C6.57986 3.43142 6.74544 3.36283 6.9181 3.36283Z" fill="#474747"/>
</svg>
