<svg width="78" height="28" viewBox="0 0 78 28" fill="none" xmlns="http://www.w3.org/2000/svg">
<path d="M0 0H5.06437V17.6319H16.0372V21.7295H0V0Z" fill="white"/>
<path d="M26.4038 21.9778C24.6323 21.9778 23.038 21.6157 21.6208 20.8914C20.2244 20.1463 19.1303 19.122 18.3383 17.8182C17.5464 16.5144 17.1504 15.0347 17.1504 13.3792C17.1504 11.7236 17.5464 10.2439 18.3383 8.94013C19.1303 7.63636 20.2244 6.62232 21.6208 5.898C23.038 5.15299 24.6323 4.78049 26.4038 4.78049C28.1753 4.78049 29.7592 5.15299 31.1556 5.898C32.5519 6.62232 33.6461 7.63636 34.438 8.94013C35.23 10.2439 35.6259 11.7236 35.6259 13.3792C35.6259 15.0347 35.23 16.5144 34.438 17.8182C33.6461 19.122 32.5519 20.1463 31.1556 20.8914C29.7592 21.6157 28.1753 21.9778 26.4038 21.9778ZM26.4038 18.0044C27.6543 18.0044 28.6755 17.5905 29.4674 16.7627C30.2802 15.9143 30.6866 14.7864 30.6866 13.3792C30.6866 11.9719 30.2802 10.8544 29.4674 10.0266C28.6755 9.17812 27.6543 8.75388 26.4038 8.75388C25.1533 8.75388 24.1217 9.17812 23.3089 10.0266C22.4961 10.8544 22.0897 11.9719 22.0897 13.3792C22.0897 14.7864 22.4961 15.9143 23.3089 16.7627C24.1217 17.5905 25.1533 18.0044 26.4038 18.0044Z" fill="white"/>
<path d="M56.2359 5.02882V18.9357C56.2359 21.9985 55.4335 24.2749 53.8287 25.765C52.224 27.255 49.8793 28 46.7949 28C45.1693 28 43.627 27.8034 42.1682 27.4102C40.7093 27.017 39.5005 26.4479 38.5418 25.7029L40.48 22.2262C41.1886 22.8056 42.0848 23.2609 43.1685 23.592C44.2523 23.9438 45.336 24.1197 46.4197 24.1197C48.1079 24.1197 49.3479 23.7369 50.1399 22.9712C50.9527 22.2262 51.3591 21.088 51.3591 19.5565V18.8426C50.0878 20.2291 48.3163 20.9224 46.0446 20.9224C44.5024 20.9224 43.0852 20.5913 41.793 19.929C40.5217 19.2461 39.5109 18.2942 38.7607 17.0732C38.0104 15.8522 37.6352 14.4449 37.6352 12.8514C37.6352 11.2579 38.0104 9.8507 38.7607 8.62971C39.5109 7.40872 40.5217 6.46711 41.793 5.80488C43.0852 5.12195 44.5024 4.78049 46.0446 4.78049C48.483 4.78049 50.3378 5.57724 51.6091 7.17073V5.02882H56.2359ZM47.0137 16.949C48.3059 16.949 49.3583 16.5765 50.1711 15.8315C51.0048 15.0658 51.4216 14.0724 51.4216 12.8514C51.4216 11.6305 51.0048 10.6474 50.1711 9.90244C49.3583 9.13673 48.3059 8.75388 47.0137 8.75388C45.7216 8.75388 44.6587 9.13673 43.825 9.90244C42.9914 10.6474 42.5746 11.6305 42.5746 12.8514C42.5746 14.0724 42.9914 15.0658 43.825 15.8315C44.6587 16.5765 45.7216 16.949 47.0137 16.949Z" fill="white"/>
<path d="M68.7778 21.9778C67.0064 21.9778 65.412 21.6157 63.9948 20.8914C62.5985 20.1463 61.5043 19.122 60.7124 17.8182C59.9204 16.5144 59.5244 15.0347 59.5244 13.3792C59.5244 11.7236 59.9204 10.2439 60.7124 8.94013C61.5043 7.63636 62.5985 6.62232 63.9948 5.898C65.412 5.15299 67.0064 4.78049 68.7778 4.78049C70.5493 4.78049 72.1333 5.15299 73.5296 5.898C74.926 6.62232 76.0201 7.63636 76.8121 8.94013C77.604 10.2439 78 11.7236 78 13.3792C78 15.0347 77.604 16.5144 76.8121 17.8182C76.0201 19.122 74.926 20.1463 73.5296 20.8914C72.1333 21.6157 70.5493 21.9778 68.7778 21.9778ZM68.7778 18.0044C70.0283 18.0044 71.0495 17.5905 71.8415 16.7627C72.6543 15.9143 73.0607 14.7864 73.0607 13.3792C73.0607 11.9719 72.6543 10.8544 71.8415 10.0266C71.0495 9.17812 70.0283 8.75388 68.7778 8.75388C67.5274 8.75388 66.4958 9.17812 65.683 10.0266C64.8701 10.8544 64.4638 11.9719 64.4638 13.3792C64.4638 14.7864 64.8701 15.9143 65.683 16.7627C66.4958 17.5905 67.5274 18.0044 68.7778 18.0044Z" fill="white"/>
</svg>
