<svg width="32" height="32" viewBox="0 0 32 32" fill="none" xmlns="http://www.w3.org/2000/svg">
<path d="M13.3334 25.3333C13.3334 26.8 14.5334 28 16 28C17.4667 28 18.6667 26.8 18.6667 25.3333C18.6667 23.8667 17.4667 22.6667 16 22.6667C14.5334 22.6667 13.3334 23.8667 13.3334 25.3333Z" stroke="#0A0A0A" stroke-width="1.5"/>
<path d="M13.3334 15.9998C13.3334 17.4665 14.5334 18.6665 16 18.6665C17.4667 18.6665 18.6667 17.4665 18.6667 15.9998C18.6667 14.5332 17.4667 13.3332 16 13.3332C14.5334 13.3332 13.3334 14.5332 13.3334 15.9998Z" stroke="#0A0A0A" stroke-width="1.5"/>
<path d="M13.3334 6.66683C13.3334 8.1335 14.5334 9.3335 16 9.3335C17.4667 9.3335 18.6667 8.1335 18.6667 6.66683C18.6667 5.20016 17.4667 4.00016 16 4.00016C14.5334 4.00016 13.3334 5.20016 13.3334 6.66683Z" stroke="#0A0A0A" stroke-width="1.5"/>
</svg>
