<svg width="32" height="32" viewBox="0 0 32 32" fill="none" xmlns="http://www.w3.org/2000/svg">
<path d="M17.88 15.9998L26.28 7.61309C26.531 7.36202 26.6721 7.02149 26.6721 6.66643C26.6721 6.31136 26.531 5.97083 26.28 5.71976C26.0289 5.46869 25.6884 5.32764 25.3333 5.32764C24.9782 5.32764 24.6377 5.46869 24.3866 5.71976L16 14.1198L7.61329 5.71976C7.36222 5.46869 7.02169 5.32764 6.66663 5.32764C6.31156 5.32764 5.97103 5.46869 5.71996 5.71976C5.46889 5.97083 5.32784 6.31136 5.32784 6.66643C5.32784 7.02149 5.46889 7.36202 5.71996 7.61309L14.12 15.9998L5.71996 24.3864C5.59499 24.5104 5.4958 24.6578 5.4281 24.8203C5.36041 24.9828 5.32556 25.1571 5.32556 25.3331C5.32556 25.5091 5.36041 25.6834 5.4281 25.8459C5.4958 26.0083 5.59499 26.1558 5.71996 26.2798C5.84391 26.4047 5.99138 26.5039 6.15386 26.5716C6.31634 26.6393 6.49061 26.6742 6.66663 26.6742C6.84264 26.6742 7.01692 26.6393 7.17939 26.5716C7.34187 26.5039 7.48934 26.4047 7.61329 26.2798L16 17.8798L24.3866 26.2798C24.5106 26.4047 24.658 26.5039 24.8205 26.5716C24.983 26.6393 25.1573 26.6742 25.3333 26.6742C25.5093 26.6742 25.6836 26.6393 25.8461 26.5716C26.0085 26.5039 26.156 26.4047 26.28 26.2798C26.4049 26.1558 26.5041 26.0083 26.5718 25.8459C26.6395 25.6834 26.6744 25.5091 26.6744 25.3331C26.6744 25.1571 26.6395 24.9828 26.5718 24.8203C26.5041 24.6578 26.4049 24.5104 26.28 24.3864L17.88 15.9998Z" fill="#474747"/>
</svg>
