<svg width="16" height="18" viewBox="0 0 16 18" fill="none" xmlns="http://www.w3.org/2000/svg">
<mask id="path-1-inside-1_199_20435" fill="white">
<path d="M12 10.5H4C3.72667 10.5 3.5 10.2733 3.5 10C3.5 9.72667 3.72667 9.5 4 9.5H12C12.2733 9.5 12.5 9.72667 12.5 10C12.5 10.2733 12.2733 10.5 12 10.5Z"/>
</mask>
<path d="M12 10.5H4C3.72667 10.5 3.5 10.2733 3.5 10C3.5 9.72667 3.72667 9.5 4 9.5H12C12.2733 9.5 12.5 9.72667 12.5 10C12.5 10.2733 12.2733 10.5 12 10.5Z" fill="#F44336"/>
<path d="M12 10.5V9.5H4V10.5V11.5H12V10.5ZM4 10.5V9.5C4.27895 9.5 4.5 9.72105 4.5 10H3.5H2.5C2.5 10.8256 3.17438 11.5 4 11.5V10.5ZM3.5 10H4.5C4.5 10.279 4.27895 10.5 4 10.5V9.5V8.5C3.17438 8.5 2.5 9.17438 2.5 10H3.5ZM4 9.5V10.5H12V9.5V8.5H4V9.5ZM12 9.5V10.5C11.721 10.5 11.5 10.279 11.5 10H12.5H13.5C13.5 9.17438 12.8256 8.5 12 8.5V9.5ZM12.5 10H11.5C11.5 9.72105 11.721 9.5 12 9.5V10.5V11.5C12.8256 11.5 13.5 10.8256 13.5 10H12.5Z" fill="#F44336" mask="url(#path-1-inside-1_199_20435)"/>
<path d="M8 14.5C7.72667 14.5 7.5 14.2733 7.5 14V6C7.5 5.72667 7.72667 5.5 8 5.5C8.27333 5.5 8.5 5.72667 8.5 6V14C8.5 14.2733 8.27333 14.5 8 14.5Z" fill="#F44336"/>
</svg>
