<svg width="32" height="32" viewBox="0 0 32 32" fill="none" xmlns="http://www.w3.org/2000/svg">
<path d="M7.8667 22.6665H24.12C26.6534 22.6665 27.9867 21.3332 27.9867 18.7998V2.6665H3.98669V18.7998C4.00003 21.3332 5.33337 22.6665 7.8667 22.6665Z" stroke="#474747" stroke-width="1.5" stroke-miterlimit="10" stroke-linecap="round" stroke-linejoin="round"/>
<path d="M2.66663 2.6665H29.3333" stroke="#474747" stroke-width="1.5" stroke-miterlimit="10" stroke-linecap="round" stroke-linejoin="round"/>
<path d="M10.6666 29.3332L16 26.6665V22.6665" stroke="#474747" stroke-width="1.5" stroke-miterlimit="10" stroke-linecap="round" stroke-linejoin="round"/>
<path d="M21.3333 29.3332L16 26.6665" stroke="#474747" stroke-width="1.5" stroke-miterlimit="10" stroke-linecap="round" stroke-linejoin="round"/>
<path d="M13 12.8668V11.2668C13 9.21342 14.4533 8.37342 16.2267 9.40009L17.6133 10.2001L19 11.0001C20.7733 12.0268 20.7733 13.7068 19 14.7334L17.6133 15.5334L16.2267 16.3334C14.4533 17.3601 13 16.5201 13 14.4668V12.8668V12.8668Z" stroke="#474747" stroke-width="1.5" stroke-miterlimit="10" stroke-linecap="round" stroke-linejoin="round"/>
</svg>
