<svg width="32" height="32" viewBox="0 0 32 32" fill="none" xmlns="http://www.w3.org/2000/svg">
<path d="M29.3333 3.6665H2.66663C2.11996 3.6665 1.66663 3.21317 1.66663 2.6665C1.66663 2.11984 2.11996 1.6665 2.66663 1.6665H29.3333C29.88 1.6665 30.3333 2.11984 30.3333 2.6665C30.3333 3.21317 29.88 3.6665 29.3333 3.6665Z" fill="#F44336"/>
<path d="M22.2266 29.7865C22.0533 30.1332 21.6933 30.3332 21.3333 30.3332C21.1866 30.3332 21.0266 30.2932 20.8933 30.2265L16 27.7865L11.1066 30.2265C10.9733 30.2932 10.8133 30.3332 10.6666 30.3332C10.3066 30.3332 9.94664 30.1332 9.77331 29.7865C9.51998 29.2798 9.71998 28.6798 10.2266 28.4398L15 26.0532V22.6665H17V26.0532L21.7733 28.4398C22.28 28.6798 22.48 29.2798 22.2266 29.7865Z" fill="#F44336"/>
<path fill-rule="evenodd" clip-rule="evenodd" d="M4 18.7998V2.6665H28V18.7998C28 21.3332 26.6667 22.6665 24.1333 22.6665H7.86667C5.33333 22.6665 4 21.3332 4 18.7998ZM12.8 10.3611V12.0001V13.6391C12.8 15.7425 14.3862 16.6029 16.3216 15.5512L17.835 14.7318L19.3484 13.9123C21.2839 12.8606 21.2839 11.1396 19.3484 10.0879L17.835 9.26845L16.3216 8.44895C14.3862 7.39726 12.8 8.25773 12.8 10.3611Z" fill="#F44336"/>
</svg>
