<svg width="24" height="24" viewBox="0 0 24 24" fill="none" xmlns="http://www.w3.org/2000/svg">
<circle opacity="0.22" cx="12.2324" cy="12.2324" r="9" fill="#474747"/>
<path d="M17.2007 11.5643L14.8267 9.18182C14.5842 8.93939 14.183 8.93939 13.9406 9.18182C13.6981 9.42424 13.6981 9.8255 13.9406 10.0679L15.2446 11.372H7.24464C6.9019 11.372 6.61768 11.6562 6.61768 11.999C6.61768 12.3417 6.9019 12.6259 7.24464 12.6259H15.2446L13.9406 13.93C13.6981 14.1724 13.6981 14.5737 13.9406 14.8161C14.066 14.9415 14.2248 15 14.3836 15C14.5424 15 14.7013 14.9415 14.8267 14.8161L17.2007 12.4336C17.4432 12.1996 17.4432 11.8067 17.2007 11.5643Z" fill="#474747"/>
</svg>
