<svg width="32" height="32" viewBox="0 0 32 32" fill="none" xmlns="http://www.w3.org/2000/svg">
<path d="M24 20.4802C22.464 20.4802 21.088 21.2162 20.224 22.3362L12.448 17.8242C12.928 16.6402 12.928 15.3282 12.448 14.1442L20.224 9.63218C21.088 10.7522 22.464 11.4882 24 11.4882C26.656 11.4882 28.8 9.34418 28.8 6.68818C28.8 4.03218 26.656 1.88818 24 1.88818C21.344 1.88818 19.2 4.03218 19.2 6.68818C19.2 7.32818 19.328 7.96818 19.552 8.51218L11.776 13.0562C10.88 11.9362 9.53595 11.2002 7.99995 11.2002C5.34395 11.2002 3.19995 13.3442 3.19995 16.0002C3.19995 18.6562 5.34395 20.8002 7.99995 20.8002C9.53595 20.8002 10.912 20.0642 11.776 18.9442L19.552 23.4562C19.328 24.0002 19.2 24.6402 19.2 25.2802C19.2 27.9362 21.344 30.0802 24 30.0802C26.656 30.0802 28.8 27.9362 28.8 25.2802C28.8 22.6242 26.656 20.4802 24 20.4802ZM24 3.20018C25.952 3.20018 27.52 4.76818 27.52 6.72018C27.52 8.67218 25.952 10.2402 24 10.2402C22.048 10.2402 20.48 8.67218 20.48 6.72018C20.48 4.76818 22.048 3.20018 24 3.20018ZM7.99995 19.5202C6.04795 19.5202 4.47995 17.9522 4.47995 16.0002C4.47995 14.0482 6.04795 12.4802 7.99995 12.4802C9.95195 12.4802 11.52 14.0482 11.52 16.0002C11.52 17.9522 9.95195 19.5202 7.99995 19.5202ZM24 28.8002C22.048 28.8002 20.48 27.2322 20.48 25.2802C20.48 23.3282 22.048 21.7602 24 21.7602C25.952 21.7602 27.52 23.3282 27.52 25.2802C27.52 27.2322 25.952 28.8002 24 28.8002Z" fill="black"/>
<path d="M24 3.20018C25.952 3.20018 27.52 4.76818 27.52 6.72018C27.52 8.67218 25.952 10.2402 24 10.2402C22.048 10.2402 20.48 8.67218 20.48 6.72018C20.48 4.76818 22.048 3.20018 24 3.20018Z" fill="black"/>
<path d="M7.99995 19.5202C6.04795 19.5202 4.47995 17.9522 4.47995 16.0002C4.47995 14.0482 6.04795 12.4802 7.99995 12.4802C9.95195 12.4802 11.52 14.0482 11.52 16.0002C11.52 17.9522 9.95195 19.5202 7.99995 19.5202Z" fill="black"/>
<path d="M24 28.8002C22.048 28.8002 20.48 27.2322 20.48 25.2802C20.48 23.3282 22.048 21.7602 24 21.7602C25.952 21.7602 27.52 23.3282 27.52 25.2802C27.52 27.2322 25.952 28.8002 24 28.8002Z" fill="black"/>
<path d="M24 20.4802C22.464 20.4802 21.088 21.2162 20.224 22.3362L12.448 17.8242C12.928 16.6402 12.928 15.3282 12.448 14.1442L20.224 9.63218C21.088 10.7522 22.464 11.4882 24 11.4882C26.656 11.4882 28.8 9.34418 28.8 6.68818C28.8 4.03218 26.656 1.88818 24 1.88818C21.344 1.88818 19.2 4.03218 19.2 6.68818C19.2 7.32818 19.328 7.96818 19.552 8.51218L11.776 13.0562C10.88 11.9362 9.53595 11.2002 7.99995 11.2002C5.34395 11.2002 3.19995 13.3442 3.19995 16.0002C3.19995 18.6562 5.34395 20.8002 7.99995 20.8002C9.53595 20.8002 10.912 20.0642 11.776 18.9442L19.552 23.4562C19.328 24.0002 19.2 24.6402 19.2 25.2802C19.2 27.9362 21.344 30.0802 24 30.0802C26.656 30.0802 28.8 27.9362 28.8 25.2802C28.8 22.6242 26.656 20.4802 24 20.4802ZM24 3.20018C25.952 3.20018 27.52 4.76818 27.52 6.72018C27.52 8.67218 25.952 10.2402 24 10.2402C22.048 10.2402 20.48 8.67218 20.48 6.72018C20.48 4.76818 22.048 3.20018 24 3.20018ZM7.99995 19.5202C6.04795 19.5202 4.47995 17.9522 4.47995 16.0002C4.47995 14.0482 6.04795 12.4802 7.99995 12.4802C9.95195 12.4802 11.52 14.0482 11.52 16.0002C11.52 17.9522 9.95195 19.5202 7.99995 19.5202ZM24 28.8002C22.048 28.8002 20.48 27.2322 20.48 25.2802C20.48 23.3282 22.048 21.7602 24 21.7602C25.952 21.7602 27.52 23.3282 27.52 25.2802C27.52 27.2322 25.952 28.8002 24 28.8002Z" stroke="black" stroke-width="0.5"/>
<path d="M24 3.20018C25.952 3.20018 27.52 4.76818 27.52 6.72018C27.52 8.67218 25.952 10.2402 24 10.2402C22.048 10.2402 20.48 8.67218 20.48 6.72018C20.48 4.76818 22.048 3.20018 24 3.20018Z" stroke="black" stroke-width="0.5"/>
<path d="M7.99995 19.5202C6.04795 19.5202 4.47995 17.9522 4.47995 16.0002C4.47995 14.0482 6.04795 12.4802 7.99995 12.4802C9.95195 12.4802 11.52 14.0482 11.52 16.0002C11.52 17.9522 9.95195 19.5202 7.99995 19.5202Z" stroke="black" stroke-width="0.5"/>
<path d="M24 28.8002C22.048 28.8002 20.48 27.2322 20.48 25.2802C20.48 23.3282 22.048 21.7602 24 21.7602C25.952 21.7602 27.52 23.3282 27.52 25.2802C27.52 27.2322 25.952 28.8002 24 28.8002Z" stroke="black" stroke-width="0.5"/>
</svg>
