<svg width="24" height="24" viewBox="0 0 24 24" fill="none" xmlns="http://www.w3.org/2000/svg">
<path d="M13.9824 3C14.467 3.42213 14.9692 3.81732 15.4273 4.25741C17.4185 6.17946 19.3979 8.11347 21.3656 10.0595L21.63 10.311C21.7449 10.3988 21.8381 10.5127 21.9023 10.6436C21.9666 10.7746 22 10.919 22 11.0654C22 11.2118 21.9666 11.3562 21.9023 11.4871C21.8381 11.6181 21.7449 11.732 21.63 11.8198C20.3084 13.1311 18.9868 14.4245 17.6388 15.7358L14.5727 18.7266C14.4569 18.8901 14.2906 19.0091 14.1004 19.0645C13.9102 19.1199 13.7072 19.1085 13.5242 19.032C13.334 18.9581 13.1747 18.8192 13.0735 18.6391C12.9723 18.459 12.9354 18.2487 12.9692 18.044V15.3496C12.5286 15.4035 12.1498 15.4304 11.7709 15.5023C9.39932 15.8542 7.17968 16.9029 5.38326 18.5201C4.82144 19.0691 4.31115 19.6705 3.85903 20.3164C3.17181 21.2864 2.54626 21.2953 2 20.2625V19.993C2 19.8673 2.07049 19.7326 2.09692 19.6068C2.37004 18.2686 2.54626 16.9124 2.92511 15.61C3.31963 14.1035 4.02304 12.6993 4.98894 11.4902C5.95484 10.281 7.16127 9.29445 8.52864 8.59548C9.77653 7.94864 11.0999 7.46578 12.467 7.15844C12.8722 7.06862 12.9868 6.89798 12.9692 6.49381C12.9692 5.76631 12.9692 5.02982 12.9692 4.30232C12.9252 4.03244 12.9786 3.75546 13.1195 3.52263C13.2605 3.28981 13.4793 3.11691 13.7357 3.03593L13.9824 3ZM14.7048 15.9154H14.8106L19.8238 11.0205L14.793 6.17047L14.6872 6.23334C14.6872 6.71835 14.6872 7.19437 14.6872 7.67937C14.7095 7.91355 14.6408 8.14731 14.4958 8.33038C14.3508 8.51346 14.1412 8.63122 13.9119 8.65835C13.0308 8.89187 12.0881 9.09845 11.1982 9.38585C9.68334 9.81257 8.29613 10.6162 7.16121 11.7245C6.0263 12.8329 5.17921 14.2112 4.69604 15.7358C4.5815 16.095 4.49339 16.4633 4.38767 16.8225C4.52816 16.8067 4.66046 16.7471 4.76652 16.6519C7.32573 14.6177 10.4729 13.503 13.7181 13.4814C13.8516 13.4626 13.9876 13.4752 14.1156 13.5184C14.2436 13.5615 14.3601 13.634 14.4563 13.7304C14.5525 13.8267 14.6257 13.9442 14.6703 14.0739C14.7149 14.2035 14.7298 14.3419 14.7137 14.4784L14.7048 15.9154Z" fill="black"/>
</svg>
