<svg width="32" height="32" viewBox="0 0 32 32" fill="none" xmlns="http://www.w3.org/2000/svg">
<path d="M11.8 12.5C12.1866 12.5 12.5 12.1866 12.5 11.8C12.5 11.4134 12.1866 11.1 11.8 11.1C11.4134 11.1 11.1 11.4134 11.1 11.8C11.1 12.1866 11.4134 12.5 11.8 12.5Z" fill="black"/>
<path d="M20.2 12.5C20.5866 12.5 20.9 12.1866 20.9 11.8C20.9 11.4134 20.5866 11.1 20.2 11.1C19.8134 11.1 19.5 11.4134 19.5 11.8C19.5 12.1866 19.8134 12.5 20.2 12.5Z" fill="black"/>
<path d="M10.4 19.5C11.8 21.6 13.9 22.3 16 22.3C18.1 22.3 20.2 21.6 21.6 19.5M30 16C30 23.732 23.732 30 16 30C8.26801 30 2 23.732 2 16C2 8.26801 8.26801 2 16 2C23.732 2 30 8.26801 30 16ZM11.8 12.5C12.1866 12.5 12.5 12.1866 12.5 11.8C12.5 11.4134 12.1866 11.1 11.8 11.1C11.4134 11.1 11.1 11.4134 11.1 11.8C11.1 12.1866 11.4134 12.5 11.8 12.5ZM20.2 12.5C20.5866 12.5 20.9 12.1866 20.9 11.8C20.9 11.4134 20.5866 11.1 20.2 11.1C19.8134 11.1 19.5 11.4134 19.5 11.8C19.5 12.1866 19.8134 12.5 20.2 12.5Z" stroke="black" stroke-miterlimit="10" stroke-linecap="round" stroke-linejoin="round"/>
</svg>
