<svg width="20" height="20" viewBox="0 0 20 20" fill="none" xmlns="http://www.w3.org/2000/svg">
<path d="M10.5879 6.75098L10.7432 7.71094L11.4336 7.02637L14.041 4.4375L12.3848 7.71777L11.9473 8.58594L12.9082 8.43652L16.5391 7.875L13.2715 9.55566L12.4062 10L13.2715 10.4443L16.5391 12.124L12.9082 11.5635L11.9473 11.4141L12.3848 12.2822L14.041 15.5615L11.4336 12.9736L10.7432 12.2891L10.5879 13.249L10 16.876L9.41211 13.249L9.25684 12.2891L8.56641 12.9736L5.95801 15.5615L7.61523 12.2822L8.05273 11.4141L7.0918 11.5635L3.45996 12.124L6.72852 10.4443L7.59375 10L6.72852 9.55566L3.45996 7.875L7.0918 8.43652L8.05273 8.58594L7.61523 7.71777L5.95801 4.4375L8.56641 7.02637L9.25684 7.71094L9.41211 6.75098L10 3.12305L10.5879 6.75098Z" fill="#F44336" stroke="#F44336"/>
</svg>
