<svg width="179" height="86" viewBox="0 0 179 86" fill="none" xmlns="http://www.w3.org/2000/svg">
<path d="M1.07787 20.1683C29.2808 34.3858 74.0779 43.5258 92.0779 41.0258C103.078 39.6683 116.578 36.3047 123.578 28.6683C129.078 22.6683 130.578 12.6683 124.078 5.66829C118.785 -0.0314371 106.078 1.04638 100.078 7.66828C93.0777 15.0464 94.3349 33.0555 100.531 41.0258C112.034 55.821 135.254 63.684 152.138 70.2156C158.879 72.8235 166.339 74.1114 172.868 76.9768C175.401 78.0885 170.675 72.2227 170.103 70.957C166.728 63.489 166.392 63.4528 171.331 70.8954C172.015 71.926 177.357 78.7641 177.069 79.4211C176.867 79.8795 161.123 83.4195 159.44 84.301" stroke="#F44336" stroke-width="2" stroke-linecap="round"/>
</svg>
