<svg width="141" height="137" viewBox="0 0 141 137" fill="none" xmlns="http://www.w3.org/2000/svg">
<path d="M22.9137 13.0954C16 37.4994 29.7204 61.5946 47.1742 67.7276C54.2501 70.214 66.4324 68.9057 70.4999 64.9996C79.2349 56.6111 67.2798 40.8658 56.4402 52.5857C50.3612 59.1585 53.1621 74.4319 55.9999 81.9996C58.9999 89.9996 65.4999 98.9995 74.9999 104.5C85.5 111 118.331 116.765 117.74 115.12" stroke="#F44336" stroke-width="1.5" stroke-linecap="round"/>
<path d="M118.874 115.623C117.233 116.335 103.198 119.947 104.833 119.535C106.974 118.995 109.126 118.218 111.319 117.947C113.915 117.628 116.389 116.659 119.001 116.628C121.292 116.6 113.742 107.202 112.077 105.902" stroke="#F44336" stroke-width="1.5" stroke-linecap="round"/>
</svg>
