<svg width="32" height="32" viewBox="0 0 32 32" fill="none" xmlns="http://www.w3.org/2000/svg">
<path d="M28 13.9998H26.6666V12.6665C26.6666 12.3129 26.5262 11.9737 26.2761 11.7237C26.0261 11.4736 25.6869 11.3332 25.3333 11.3332C24.9797 11.3332 24.6405 11.4736 24.3905 11.7237C24.1404 11.9737 24 12.3129 24 12.6665V13.9998H22.6666C22.313 13.9998 21.9739 14.1403 21.7238 14.3904C21.4738 14.6404 21.3333 14.9795 21.3333 15.3332C21.3333 15.6868 21.4738 16.0259 21.7238 16.276C21.9739 16.526 22.313 16.6665 22.6666 16.6665H24V17.9998C24 18.3535 24.1404 18.6926 24.3905 18.9426C24.6405 19.1927 24.9797 19.3332 25.3333 19.3332C25.6869 19.3332 26.0261 19.1927 26.2761 18.9426C26.5262 18.6926 26.6666 18.3535 26.6666 17.9998V16.6665H28C28.3536 16.6665 28.6927 16.526 28.9428 16.276C29.1928 16.0259 29.3333 15.6868 29.3333 15.3332C29.3333 14.9795 29.1928 14.6404 28.9428 14.3904C28.6927 14.1403 28.3536 13.9998 28 13.9998ZM17.7333 16.2932C18.4447 15.6773 19.0154 14.9157 19.4065 14.0599C19.7976 13.2041 20 12.2741 20 11.3332C20 9.56506 19.2976 7.86937 18.0473 6.61913C16.7971 5.36888 15.1014 4.6665 13.3333 4.6665C11.5652 4.6665 9.86949 5.36888 8.61925 6.61913C7.36901 7.86937 6.66663 9.56506 6.66663 11.3332C6.66662 12.2741 6.86903 13.2041 7.26013 14.0599C7.65123 14.9157 8.22186 15.6773 8.93329 16.2932C7.06681 17.1384 5.48325 18.5032 4.37193 20.2246C3.26062 21.9459 2.66859 23.9509 2.66663 25.9998C2.66663 26.3535 2.8071 26.6926 3.05715 26.9426C3.3072 27.1927 3.64634 27.3332 3.99996 27.3332C4.35358 27.3332 4.69272 27.1927 4.94277 26.9426C5.19282 26.6926 5.33329 26.3535 5.33329 25.9998C5.33329 23.8781 6.17615 21.8433 7.67644 20.343C9.17673 18.8427 11.2116 17.9998 13.3333 17.9998C15.455 17.9998 17.4899 18.8427 18.9901 20.343C20.4904 21.8433 21.3333 23.8781 21.3333 25.9998C21.3333 26.3535 21.4738 26.6926 21.7238 26.9426C21.9739 27.1927 22.313 27.3332 22.6666 27.3332C23.0202 27.3332 23.3594 27.1927 23.6094 26.9426C23.8595 26.6926 24 26.3535 24 25.9998C23.998 23.9509 23.406 21.9459 22.2947 20.2246C21.1833 18.5032 19.5998 17.1384 17.7333 16.2932ZM13.3333 15.3332C12.5422 15.3332 11.7688 15.0986 11.111 14.659C10.4532 14.2195 9.94053 13.5948 9.63777 12.8639C9.33502 12.133 9.25581 11.3287 9.41015 10.5528C9.56449 9.77689 9.94546 9.06415 10.5049 8.50474C11.0643 7.94533 11.777 7.56437 12.5529 7.41003C13.3289 7.25569 14.1331 7.3349 14.864 7.63765C15.5949 7.9404 16.2196 8.45309 16.6592 9.11089C17.0987 9.76869 17.3333 10.542 17.3333 11.3332C17.3333 12.394 16.9119 13.4115 16.1617 14.1616C15.4116 14.9117 14.3942 15.3332 13.3333 15.3332Z" fill="#1E1E1E"/>
</svg>
