<svg width="29" height="28" viewBox="0 0 29 28" fill="none" xmlns="http://www.w3.org/2000/svg">
<rect x="0.5" width="28" height="28" rx="4" fill="#E9F8F3"/>
<path d="M22.4658 12.9495L21.3324 11.6328C21.1158 11.3828 20.9408 10.9161 20.9408 10.5828V9.16615C20.9408 8.28281 20.2158 7.55781 19.3324 7.55781H17.9158C17.5908 7.55781 17.1158 7.38281 16.8658 7.16615L15.5491 6.03281C14.9741 5.54115 14.0324 5.54115 13.4491 6.03281L12.1408 7.17448C11.8908 7.38281 11.4158 7.55781 11.0908 7.55781H9.64909C8.76576 7.55781 8.04076 8.28281 8.04076 9.16615V10.5911C8.04076 10.9161 7.86576 11.3828 7.65742 11.6328L6.53242 12.9578C6.04909 13.5328 6.04909 14.4661 6.53242 15.0411L7.65742 16.3661C7.86576 16.6161 8.04076 17.0828 8.04076 17.4078V18.8328C8.04076 19.7161 8.76576 20.4411 9.64909 20.4411H11.0908C11.4158 20.4411 11.8908 20.6161 12.1408 20.8328L13.4574 21.9661C14.0324 22.4578 14.9741 22.4578 15.5574 21.9661L16.8741 20.8328C17.1241 20.6161 17.5908 20.4411 17.9241 20.4411H19.3408C20.2241 20.4411 20.9491 19.7161 20.9491 18.8328V17.4161C20.9491 17.0911 21.1241 16.6161 21.3408 16.3661L22.4741 15.0495C22.9574 14.4745 22.9574 13.5245 22.4658 12.9495ZM17.9658 12.4245L13.9408 16.4495C13.8241 16.5661 13.6658 16.6328 13.4991 16.6328C13.3324 16.6328 13.1741 16.5661 13.0574 16.4495L11.0408 14.4328C10.7991 14.1911 10.7991 13.7911 11.0408 13.5495C11.2824 13.3078 11.6824 13.3078 11.9241 13.5495L13.4991 15.1245L17.0824 11.5411C17.3241 11.2995 17.7241 11.2995 17.9658 11.5411C18.2074 11.7828 18.2074 12.1828 17.9658 12.4245Z" fill="#12B736"/>
</svg>
