<svg width="20" height="20" viewBox="0 0 20 20" fill="none" xmlns="http://www.w3.org/2000/svg">
<path d="M9.9993 10.5898L5.62763 14.9615C5.54985 15.0392 5.4543 15.0809 5.34096 15.0865C5.22763 15.092 5.12652 15.0503 5.03763 14.9615C4.94874 14.8726 4.9043 14.7742 4.9043 14.6665C4.9043 14.5587 4.94874 14.4603 5.03763 14.3715L9.4093 9.99978L5.03763 5.62812C4.95985 5.55034 4.91819 5.45478 4.91263 5.34145C4.90707 5.22812 4.94874 5.12701 5.03763 5.03812C5.12652 4.94923 5.22485 4.90479 5.33263 4.90479C5.44041 4.90479 5.53874 4.94923 5.62763 5.03812L9.9993 9.40978L14.371 5.03812C14.4487 4.96034 14.5446 4.91867 14.6585 4.91312C14.7712 4.90756 14.8721 4.94923 14.961 5.03812C15.0499 5.12701 15.0943 5.22534 15.0943 5.33312C15.0943 5.4409 15.0499 5.53923 14.961 5.62812L10.5893 9.99978L14.961 14.3715C15.0387 14.4492 15.0804 14.5451 15.086 14.659C15.0915 14.7717 15.0499 14.8726 14.961 14.9615C14.8721 15.0503 14.7737 15.0948 14.666 15.0948C14.5582 15.0948 14.4599 15.0503 14.371 14.9615L9.9993 10.5898Z" fill="black"/>
</svg>
