<svg width="32" height="32" viewBox="0 0 32 32" fill="none" xmlns="http://www.w3.org/2000/svg">
<path d="M25.9126 5.37866C26.089 5.65588 25.7869 5.97883 25.4665 5.90602C24.8398 5.71935 24.1465 5.62602 23.4398 5.62602H18.9562C18.799 5.62602 18.6509 5.55207 18.5564 5.42638L16.9731 3.31935C16.7853 3.05327 16.9628 2.66602 17.2885 2.66602H20.9598C23.0411 2.66602 24.8745 3.74699 25.9126 5.37866Z" fill="#0BA5EC"/>
<path d="M26.8527 8.71935C26.2793 8.30602 25.626 7.99935 24.9193 7.82602C24.4394 7.69268 23.946 7.62602 23.4394 7.62602H18.4793C17.706 7.62602 17.6527 7.55935 17.2393 7.01268L15.3727 4.53268C14.506 3.37268 13.826 2.66602 11.6527 2.66602H8.55935C5.30602 2.66602 2.66602 5.30602 2.66602 8.55935V23.4394C2.66602 26.6927 5.30602 29.3327 8.55935 29.3327H23.4394C26.6927 29.3327 29.3327 26.6927 29.3327 23.4394V13.5194C29.3327 11.5327 28.3593 9.78602 26.8527 8.71935ZM19.186 21.786H12.7993C12.2793 21.786 11.8793 21.3727 11.8793 20.8527C11.8793 20.346 12.2793 19.9193 12.7993 19.9193H19.186C19.706 19.9193 20.1194 20.346 20.1194 20.8527C20.1194 21.3727 19.706 21.786 19.186 21.786Z" fill="#0BA5EC"/>
</svg>
