<svg width="32" height="32" viewBox="0 0 32 32" fill="none" xmlns="http://www.w3.org/2000/svg">
<path d="M15.9993 2.66602C8.65268 2.66602 2.66602 8.65268 2.66602 15.9993C2.66602 23.346 8.65268 29.3327 15.9993 29.3327C23.346 29.3327 29.3327 23.346 29.3327 15.9993C29.3327 8.65268 23.346 2.66602 15.9993 2.66602ZM21.3327 16.9993H16.9993V21.3327C16.9993 21.8793 16.546 22.3327 15.9993 22.3327C15.4527 22.3327 14.9993 21.8793 14.9993 21.3327V16.9993H10.666C10.1193 16.9993 9.66602 16.546 9.66602 15.9993C9.66602 15.4527 10.1193 14.9993 10.666 14.9993H14.9993V10.666C14.9993 10.1193 15.4527 9.66602 15.9993 9.66602C16.546 9.66602 16.9993 10.1193 16.9993 10.666V14.9993H21.3327C21.8793 14.9993 22.3327 15.4527 22.3327 15.9993C22.3327 16.546 21.8793 16.9993 21.3327 16.9993Z" fill="#12B736"/>
</svg>
