<svg width="24" height="24" viewBox="0 0 24 24" fill="none" xmlns="http://www.w3.org/2000/svg">
<path d="M2 1.75H22C22.1339 1.75 22.25 1.86614 22.25 2C22.25 2.13386 22.1339 2.25 22 2.25H2C1.86614 2.25 1.75 2.13386 1.75 2C1.75 1.86614 1.86614 1.75 2 1.75Z" fill="currentColor" stroke="currentColor"/>
<path d="M12.25 17.5V19.8486L12.5264 19.9873L16.1162 21.7822C16.2354 21.8388 16.2909 21.9796 16.2227 22.1162C16.183 22.1955 16.0935 22.25 16 22.25C15.9729 22.2499 15.9289 22.2404 15.8936 22.2227L12.2236 20.3926L12 20.2812L11.7773 20.3926L8.10742 22.2227H8.10645C8.07096 22.2404 8.02702 22.25 8 22.25C7.90654 22.2499 7.81698 22.1955 7.77734 22.1162C7.70918 21.9796 7.76551 21.8387 7.88477 21.7822L7.89355 21.7773L11.4736 19.9873L11.75 19.8486V17.5H12.25Z" fill="currentColor" stroke="currentColor"/>
<path fill-rule="evenodd" clip-rule="evenodd" d="M3 14.1V2H21V14.1C21 16 20 17 18.1 17H5.9C4 17 3 16 3 14.1ZM9.6 7.77095V9.0002V10.2294C9.6 11.807 10.7896 12.4523 12.2412 11.6636L13.3763 11.0489L14.5113 10.4343C15.9629 9.64555 15.9629 8.35484 14.5113 7.56608L13.3763 6.95146L12.2412 6.33683C10.7896 5.54807 9.6 6.19342 9.6 7.77095Z" fill="currentColor"/>
</svg>
