<svg width="24" height="24" viewBox="0 0 24 24" fill="none" xmlns="http://www.w3.org/2000/svg">
<path d="M11.2412 2.26953H12.7607C14.5563 2.26953 15.2912 2.76247 15.6309 3.29004C16.0069 3.8741 16.0215 4.65437 16.0215 5.5293V6.06934H16.7607C18.7617 6.06934 20.0085 6.52824 20.7197 7.31445C21.5076 8.18614 21.5505 9.37076 21.4727 10.3623C21.4675 10.403 21.4648 10.4376 21.4629 10.46C21.4604 10.489 21.4594 10.4993 21.458 10.5078L21.4551 10.5215L21.4541 10.5371L21.4043 11.0039L21.3887 11.1436C21.0224 11.4077 20.6288 11.6725 20.2549 11.8838L20.2441 11.8906C20.2255 11.9018 20.2085 11.9125 20.1953 11.9209C20.1802 11.9306 20.1733 11.935 20.1631 11.9414C20.1466 11.9518 20.1363 11.9572 20.127 11.9619L20.1133 11.9697L20.0986 11.9775C18.3715 12.9866 16.4602 13.676 14.4814 13.9961L14.0908 14.0596L14.0625 14.4531C14.0312 14.8873 13.9239 15.2608 13.6562 15.5312C13.3932 15.7969 12.8883 16.0498 11.8711 16.0498C10.8556 16.0498 10.356 15.795 10.0947 15.5303C9.8269 15.259 9.71953 14.8882 9.67871 14.4619L9.6416 14.0781L9.26074 14.0156C7.52049 13.7331 5.80754 13.1776 4.23438 12.3584L3.92188 12.1914L3.91602 12.1885L3.70117 12.0723C3.63418 12.0348 3.57162 11.9975 3.51172 11.959L3.49805 11.9502L3.4834 11.9424C3.26193 11.8193 2.87758 11.572 2.63477 11.4131L2.55859 10.6025L2.55762 10.5908L2.55566 10.5791L2.54785 10.5215C2.44959 9.52158 2.45044 8.24809 3.28125 7.32422L3.28223 7.3252C3.99361 6.53849 5.23036 6.0791 7.24121 6.0791H7.98145V5.5293C7.98145 4.65978 7.99574 3.87948 8.37207 3.29395C8.71209 2.76492 9.44659 2.26953 11.2412 2.26953ZM10.1309 13.8398C10.1309 14.0832 10.1298 14.3211 10.1533 14.5186C10.1772 14.7187 10.234 14.9579 10.4092 15.1572C10.5883 15.3611 10.8263 15.4507 11.0537 15.4951C11.2772 15.5387 11.5497 15.5498 11.8613 15.5498C12.1703 15.5498 12.4408 15.5404 12.6621 15.5C12.8867 15.459 13.1282 15.3744 13.3105 15.1699C13.489 14.9697 13.5448 14.7269 13.5684 14.5254C13.5917 14.3256 13.5908 14.0825 13.5908 13.8291V12.0791H10.1309V13.8398ZM11.2412 2.69922C10.6436 2.69922 10.1566 2.73916 9.76758 2.84082C9.37011 2.94469 9.04233 3.12228 8.80957 3.41797C8.58279 3.70608 8.49257 4.04869 8.45117 4.3877C8.41029 4.72252 8.41113 5.11472 8.41113 5.5293V6.0791H15.5908V5.5293C15.5908 5.11717 15.5917 4.726 15.5508 4.3916C15.5094 4.05303 15.4196 3.71023 15.1934 3.42188C14.9611 3.1259 14.6332 2.9477 14.2354 2.84277C13.846 2.74011 13.3587 2.69922 12.7607 2.69922H11.2412Z" fill="currentColor" stroke="currentColor"/>
<path d="M21.0977 14.1875C21.099 14.1884 21.1 14.1898 21.1006 14.1904V14.1914L20.7422 18.1387C20.6413 19.0996 20.4019 19.9656 19.7471 20.6025C19.0953 21.2364 17.9401 21.7305 15.8096 21.7305H8.18945C6.05899 21.7304 4.90378 21.2365 4.25195 20.6035C3.67896 20.047 3.42405 19.3162 3.30176 18.502L3.25684 18.1484L2.91699 14.4072V14.4062C2.91756 14.4056 2.91869 14.4052 2.91992 14.4043C2.92209 14.4028 2.92377 14.4017 2.9248 14.4014C2.9248 14.4014 2.92633 14.4013 2.92871 14.4023C4.06045 14.9144 6.20253 15.8483 7.5498 16.2012C7.55925 16.2037 7.5788 16.2135 7.59277 16.2432C8.30884 17.7746 9.84776 18.5205 11.8701 18.5205C13.8801 18.5204 15.4306 17.7437 16.1465 16.2139C16.1604 16.1842 16.1801 16.1737 16.1904 16.1709C17.6233 15.7939 19.905 14.7494 21.0879 14.1865C21.0892 14.1859 21.0902 14.1848 21.0908 14.1846C21.0912 14.1846 21.0943 14.1852 21.0977 14.1875Z" fill="currentColor" stroke="currentColor"/>
</svg>
