<svg width="17" height="16" viewBox="0 0 17 16" fill="none" xmlns="http://www.w3.org/2000/svg">
<path d="M12.3336 10.2394C11.5656 10.2394 10.8776 10.6074 10.4456 11.1674L6.55759 8.91136C6.79759 8.31936 6.79759 7.66336 6.55759 7.07136L10.4456 4.81536C10.8776 5.37536 11.5656 5.74336 12.3336 5.74336C13.6616 5.74336 14.7336 4.67136 14.7336 3.34336C14.7336 2.01536 13.6616 0.943359 12.3336 0.943359C11.0056 0.943359 9.93359 2.01536 9.93359 3.34336C9.93359 3.66336 9.99759 3.98336 10.1096 4.25536L6.22159 6.52736C5.77359 5.96736 5.10159 5.59936 4.33359 5.59936C3.00559 5.59936 1.93359 6.67136 1.93359 7.99936C1.93359 9.32736 3.00559 10.3994 4.33359 10.3994C5.10159 10.3994 5.78959 10.0314 6.22159 9.47136L10.1096 11.7274C9.99759 11.9994 9.93359 12.3194 9.93359 12.6394C9.93359 13.9674 11.0056 15.0394 12.3336 15.0394C13.6616 15.0394 14.7336 13.9674 14.7336 12.6394C14.7336 11.3114 13.6616 10.2394 12.3336 10.2394ZM12.3336 1.59936C13.3096 1.59936 14.0936 2.38336 14.0936 3.35936C14.0936 4.33536 13.3096 5.11936 12.3336 5.11936C11.3576 5.11936 10.5736 4.33536 10.5736 3.35936C10.5736 2.38336 11.3576 1.59936 12.3336 1.59936ZM4.33359 9.75936C3.35759 9.75936 2.57359 8.97536 2.57359 7.99936C2.57359 7.02336 3.35759 6.23936 4.33359 6.23936C5.30959 6.23936 6.09359 7.02336 6.09359 7.99936C6.09359 8.97536 5.30959 9.75936 4.33359 9.75936ZM12.3336 14.3994C11.3576 14.3994 10.5736 13.6154 10.5736 12.6394C10.5736 11.6634 11.3576 10.8794 12.3336 10.8794C13.3096 10.8794 14.0936 11.6634 14.0936 12.6394C14.0936 13.6154 13.3096 14.3994 12.3336 14.3994Z" fill="black" stroke="black" stroke-width="0.5"/>
</svg>
