<svg width="18" height="18" viewBox="0 0 18 18" fill="none" xmlns="http://www.w3.org/2000/svg">
<path d="M12.4148 4.82588C12.525 4.76965 12.6312 4.70575 12.7326 4.63463C13.5538 4.05807 13.807 2.99776 13.2951 2.27213C12.7832 1.54651 11.7032 1.42838 10.882 2.01057C10.0607 2.59276 9.63883 3.62213 9.18039 4.82307L12.4148 4.82588ZM2.44727 8.56651H15.5563V15.2321C15.5563 15.5305 15.4378 15.8167 15.2268 16.0276C15.0158 16.2386 14.7297 16.3571 14.4313 16.3571H3.57227C3.2739 16.3571 2.98775 16.2386 2.77677 16.0276C2.56579 15.8167 2.44727 15.5305 2.44727 15.2321V8.56651Z" stroke="#0A0A0A" stroke-width="1.25" stroke-linecap="round" stroke-linejoin="round"/>
<path d="M10.6451 8.56641H7.35449V16.357H10.6451V8.56641Z" stroke="#0A0A0A" stroke-width="1.25" stroke-linecap="round" stroke-linejoin="round"/>
<path d="M5.5859 4.82588C5.47618 4.77027 5.37087 4.70633 5.2709 4.63463C4.44965 4.05807 4.19372 2.99776 4.7084 2.27213C5.22309 1.54651 6.30028 1.42839 7.12434 2.01057C7.9484 2.59276 8.36465 3.62213 8.8259 4.82307L5.5859 4.82588Z" stroke="#0A0A0A" stroke-width="1.25" stroke-linecap="round" stroke-linejoin="round"/>
<path d="M15.3281 4.82617H2.67188C2.20588 4.82617 1.82812 5.20393 1.82812 5.66992V7.72305C1.82812 8.18904 2.20588 8.5668 2.67188 8.5668H15.3281C15.7941 8.5668 16.1719 8.18904 16.1719 7.72305V5.66992C16.1719 5.20393 15.7941 4.82617 15.3281 4.82617Z" stroke="#0A0A0A" stroke-width="1.25" stroke-linecap="round" stroke-linejoin="round"/>
<path d="M10.9463 4.82617H7.05664V8.5668H10.9463V4.82617Z" stroke="#0A0A0A" stroke-width="1.25" stroke-linecap="round" stroke-linejoin="round"/>
</svg>
