<svg width="18" height="18" viewBox="0 0 18 18" fill="none" xmlns="http://www.w3.org/2000/svg">
<path d="M9.01494 2.18164C6.53244 2.18164 4.51494 4.19914 4.51494 6.68164V8.84914C4.51494 9.30664 4.31994 10.0041 4.08744 10.3941L3.22494 11.8266C2.69244 12.7116 3.05994 13.6941 4.03494 14.0241C7.26744 15.1041 10.7549 15.1041 13.9874 14.0241C14.8949 13.7241 15.2924 12.6516 14.7974 11.8266L13.9349 10.3941C13.7099 10.0041 13.5149 9.30664 13.5149 8.84914V6.68164C13.5149 4.20664 11.4899 2.18164 9.01494 2.18164Z" stroke="#0A0A0A" stroke-width="1.25" stroke-miterlimit="10" stroke-linecap="round"/>
<path d="M10.4029 2.40008C10.1704 2.33258 9.93043 2.28008 9.68293 2.25008C8.96293 2.16008 8.27293 2.21258 7.62793 2.40008C7.84543 1.84508 8.38543 1.45508 9.01543 1.45508C9.64543 1.45508 10.1854 1.84508 10.4029 2.40008Z" stroke="#0A0A0A" stroke-width="1.25" stroke-miterlimit="10" stroke-linecap="round" stroke-linejoin="round"/>
<path d="M11.2646 14.2949C11.2646 15.5324 10.2521 16.5449 9.01465 16.5449C8.39965 16.5449 7.82965 16.2899 7.42465 15.8849C7.01965 15.4799 6.76465 14.9099 6.76465 14.2949" stroke="#0A0A0A" stroke-width="1.25" stroke-miterlimit="10"/>
</svg>
