<svg width="24" height="24" viewBox="0 0 24 24" fill="none" xmlns="http://www.w3.org/2000/svg">
<g clip-path="url(#clip0_3077_111317)">
<path d="M18.48 14.6405V12.6725C18.48 12.4325 18.672 12.1925 18.96 12.1925H21.792C22.08 12.1925 22.272 12.4325 22.272 12.6725V14.6405C22.272 14.8805 22.08 15.1205 21.792 15.1205H18.96C18.72 15.1205 18.48 14.8805 18.48 14.6405ZM18.48 18.5285V16.5605C18.48 16.2725 18.672 16.0805 18.96 16.0805H21.792C22.08 16.0805 22.272 16.2725 22.272 16.5605V18.5285C22.272 18.7685 22.08 19.0085 21.792 19.0085H18.96C18.72 19.0085 18.48 18.8165 18.48 18.5285ZM12.912 2.92847V0.960469C12.912 0.672469 13.152 0.480469 13.392 0.480469H16.224C16.512 0.480469 16.704 0.672469 16.704 0.960469V2.92847C16.704 3.16847 16.512 3.40847 16.224 3.40847H13.392C13.104 3.40847 12.912 3.16847 12.912 2.92847ZM7.34398 14.6405V12.6725C7.34398 12.4325 7.58398 12.1925 7.82398 12.1925H10.656C10.944 12.1925 11.136 12.4325 11.136 12.6725V14.6405C11.136 14.8805 10.944 15.1205 10.656 15.1205H7.82398C7.53598 15.1205 7.34398 14.8805 7.34398 14.6405ZM12.912 6.81647V4.84847C12.912 4.60847 13.152 4.36847 13.392 4.36847H16.224C16.512 4.36847 16.704 4.60847 16.704 4.84847V6.81647C16.704 7.10447 16.512 7.29647 16.224 7.29647H13.392C13.104 7.29647 12.912 7.10447 12.912 6.81647ZM23.52 20.5445V23.0405C23.52 23.3285 23.328 23.5205 23.04 23.5205H0.95998C0.71998 23.5205 0.47998 23.3285 0.47998 23.0405V20.5445C0.47998 20.2565 0.71998 20.0645 0.95998 20.0645H23.04C23.328 20.0645 23.52 20.3045 23.52 20.5445ZM1.72798 10.7045V8.73647C1.72798 8.44847 1.96798 8.25647 2.20798 8.25647H5.03998C5.32798 8.25647 5.51998 8.44847 5.51998 8.73647V10.7045C5.51998 10.9925 5.32798 11.1845 5.03998 11.1845H2.20798C1.96798 11.1845 1.72798 10.9925 1.72798 10.7045ZM1.72798 18.5285V16.5605C1.72798 16.2725 1.96798 16.0805 2.20798 16.0805H5.03998C5.32798 16.0805 5.51998 16.2725 5.51998 16.5605V18.5285C5.51998 18.7685 5.32798 19.0085 5.03998 19.0085H2.20798C1.96798 19.0085 1.72798 18.8165 1.72798 18.5285ZM7.34398 10.7045V8.73647C7.34398 8.44847 7.58398 8.25647 7.82398 8.25647H10.656C10.944 8.25647 11.136 8.44847 11.136 8.73647V10.7045C11.136 10.9925 10.944 11.1845 10.656 11.1845H7.82398C7.53598 11.1845 7.34398 10.9925 7.34398 10.7045ZM7.34398 18.5285V16.5605C7.34398 16.2725 7.58398 16.0805 7.82398 16.0805H10.656C10.944 16.0805 11.136 16.2725 11.136 16.5605V18.5285C11.136 18.7685 10.944 19.0085 10.656 19.0085H7.82398C7.53598 19.0085 7.34398 18.8165 7.34398 18.5285ZM1.72798 14.6405V12.6725C1.72798 12.4325 1.96798 12.1925 2.20798 12.1925H5.03998C5.32798 12.1925 5.51998 12.4325 5.51998 12.6725V14.6405C5.51998 14.8805 5.32798 15.1205 5.03998 15.1205H2.20798C1.96798 15.1205 1.72798 14.8805 1.72798 14.6405ZM12.912 10.7045V8.73647C12.912 8.44847 13.152 8.25647 13.392 8.25647H16.224C16.512 8.25647 16.704 8.44847 16.704 8.73647V10.7045C16.704 10.9925 16.512 11.1845 16.224 11.1845H13.392C13.104 11.1845 12.912 10.9925 12.912 10.7045ZM12.912 18.5285V16.5605C12.912 16.2725 13.152 16.0805 13.392 16.0805H16.224C16.512 16.0805 16.704 16.2725 16.704 16.5605V18.5285C16.704 18.7685 16.512 19.0085 16.224 19.0085H13.392C13.104 19.0085 12.912 18.8165 12.912 18.5285ZM1.72798 6.81647V4.84847C1.72798 4.60847 1.96798 4.36847 2.20798 4.36847H5.03998C5.32798 4.36847 5.51998 4.60847 5.51998 4.84847V6.81647C5.51998 7.10447 5.32798 7.29647 5.03998 7.29647H2.20798C1.96798 7.29647 1.72798 7.10447 1.72798 6.81647ZM12.912 14.6405V12.6725C12.912 12.4325 13.152 12.1925 13.392 12.1925H16.224C16.512 12.1925 16.704 12.4325 16.704 12.6725V14.6405C16.704 14.8805 16.512 15.1205 16.224 15.1205H13.392C13.104 15.1205 12.912 14.8805 12.912 14.6405Z" fill="#086BC6"/>
</g>
<defs>
<clipPath id="clip0_3077_111317">
<rect width="24" height="24" fill="white"/>
</clipPath>
</defs>
</svg>
