<svg width="24" height="24" viewBox="0 0 24 24" fill="none" xmlns="http://www.w3.org/2000/svg">
<path d="M15.8545 4.72876H8.14545L9.23636 2.2924C9.30909 2.18331 9.41818 2.07422 9.56364 2.07422H14.5091C14.6545 2.07422 14.7636 2.14695 14.8364 2.2924L15.8545 4.72876ZM4.32727 4.21967V4.72876H2V4.18331C2 4.14695 2 4.11058 2.03636 4.03786C2.21818 3.56513 2.65455 3.27422 3.16364 3.27422C3.67273 3.27422 4.10909 3.56513 4.29091 4.03786C4.32727 4.11058 4.32727 4.14695 4.32727 4.21967ZM12 8.18331C8.98182 8.18331 6.50909 10.656 6.50909 13.6742C6.50909 16.6924 8.98182 19.1651 12 19.1651C15.0182 19.1651 17.4909 16.6924 17.4909 13.6742C17.4909 10.656 15.0182 8.18331 12 8.18331ZM12 17.0924C10.1091 17.0924 8.58182 15.5651 8.58182 13.6742C8.58182 11.7833 10.1091 10.256 12 10.256C13.8909 10.256 15.4182 11.7833 15.4182 13.6742C15.4182 15.5651 13.8909 17.0924 12 17.0924Z" fill="#13AF6A"/>
<path d="M12 10.944C10.5091 10.944 9.27271 12.1803 9.27271 13.6712C9.27271 15.1621 10.5091 16.3985 12 16.3985C13.4909 16.3985 14.7273 15.1621 14.7273 13.6712C14.7273 12.1803 13.4909 10.944 12 10.944ZM20.6182 7.92578C20.3273 7.92578 20.0727 8.18033 20.0727 8.47124C20.0727 8.76214 20.3273 9.01669 20.6182 9.01669C20.9091 9.01669 21.1636 8.76214 21.1636 8.47124C21.1636 8.14396 20.9091 7.92578 20.6182 7.92578Z" fill="#13AF6A"/>
<path d="M22.2182 5.45312H1.78183C0.981829 5.45312 0.363647 6.07131 0.363647 6.83494V20.4713C0.363647 21.2349 0.981829 21.8895 1.78183 21.8895H22.2182C22.9818 21.8895 23.6364 21.2713 23.6364 20.4713V6.83494C23.6364 6.07131 23.0182 5.45312 22.2182 5.45312ZM12 19.8895C8.58183 19.8895 5.78183 17.0895 5.78183 13.6713C5.78183 10.2531 8.58183 7.45312 12 7.45312C15.4182 7.45312 18.2182 10.2531 18.2182 13.6713C18.2182 17.0895 15.4182 19.8895 12 19.8895ZM20.6182 9.67131C19.9273 9.67131 19.3818 9.12585 19.3818 8.43494C19.3818 7.74403 19.9273 7.19858 20.6182 7.19858C21.3091 7.19858 21.8546 7.74403 21.8546 8.43494C21.8546 9.12585 21.3091 9.67131 20.6182 9.67131Z" fill="#13AF6A"/>
</svg>
