<svg width="24" height="24" viewBox="0 0 24 24" fill="none" xmlns="http://www.w3.org/2000/svg">
<g clip-path="url(#clip0_3077_111277)">
<path d="M18.72 10.9277C18.33 7.88266 15.8213 5.42641 12.7575 5.08891C12.48 5.05891 12.2325 5.04766 12 5.04766C8.26127 5.04766 5.22002 8.08516 5.22002 11.8277C5.22002 13.5227 5.85002 15.1502 6.99377 16.3952C7.83377 17.3177 8.29502 18.5627 8.29502 19.9089V20.0402C8.29502 20.0814 8.30252 20.1189 8.31002 20.1564H9.63377C9.64127 20.1189 9.65252 20.0814 9.65252 20.0402V19.9089C9.65252 19.8264 9.65252 19.7477 9.64502 19.6652C9.59627 18.0752 9.01502 16.6014 7.99502 15.4877C7.08192 14.4876 6.57624 13.1819 6.57752 11.8277C6.57752 8.83516 9.01127 6.40141 12.0038 6.40141C12.1875 6.40141 12.39 6.41266 12.6188 6.43516C15.0638 6.70516 17.0663 8.67016 17.3813 11.1039C17.5875 12.6939 17.1263 14.2239 16.0725 15.4164C14.9925 16.6427 14.3888 18.1464 14.3588 19.6652C14.355 19.7102 14.355 19.7514 14.355 19.7964V20.0402C14.355 20.0814 14.3663 20.1189 14.3738 20.1564H15.6975C15.705 20.1189 15.7125 20.0814 15.7125 20.0402V19.7964C15.7125 18.5589 16.2 17.3214 17.0925 16.3089C18.3975 14.8202 18.9788 12.9114 18.72 10.9277ZM8.15627 21.2289C8.15627 22.1552 8.88002 22.9089 9.77627 22.9089H10.275C10.4775 23.5389 11.055 24.0039 11.7338 24.0039H12.2663C12.945 24.0039 13.5225 23.5427 13.725 22.9089H14.2275C15.12 22.9089 15.8475 22.1589 15.8475 21.2289V21.0639H8.15627V21.2289ZM12 3.55891C12.375 3.55891 12.675 3.25516 12.675 2.88391V0.678906C12.675 0.499885 12.6039 0.328196 12.4773 0.201609C12.3507 0.0750221 12.179 0.00390625 12 0.00390625C11.821 0.00390625 11.6493 0.0750221 11.5227 0.201609C11.3961 0.328196 11.325 0.499885 11.325 0.678906V2.88391C11.325 3.25516 11.625 3.55891 12 3.55891ZM5.19752 5.98141C5.26055 6.04444 5.33539 6.09444 5.41775 6.12856C5.5001 6.16267 5.58838 6.18023 5.67752 6.18023C5.76666 6.18023 5.85493 6.16267 5.93729 6.12856C6.01965 6.09444 6.09448 6.04444 6.15752 5.98141C6.22055 5.91837 6.27056 5.84354 6.30467 5.76118C6.33878 5.67882 6.35634 5.59055 6.35634 5.50141C6.35634 5.41226 6.33878 5.32399 6.30467 5.24163C6.27056 5.15927 6.22055 5.08444 6.15752 5.02141L4.59752 3.46141C4.53451 3.39832 4.45969 3.34827 4.37733 3.31412C4.29497 3.27997 4.20668 3.2624 4.11752 3.2624C4.02836 3.2624 3.94007 3.27997 3.85771 3.31412C3.77535 3.34827 3.70052 3.39832 3.63752 3.46141C3.37502 3.72391 3.37502 4.15516 3.63752 4.41766L5.19752 5.98141ZM3.73502 11.8277C3.73502 11.4527 3.43127 11.1527 3.06002 11.1527H0.851269C0.672248 11.1527 0.50056 11.2238 0.373972 11.3504C0.247385 11.4769 0.17627 11.6486 0.17627 11.8277C0.17627 12.0067 0.247385 12.1784 0.373972 12.305C0.50056 12.4315 0.672248 12.5027 0.851269 12.5027H3.05627C3.43127 12.5027 3.73502 12.1989 3.73502 11.8277ZM5.67752 17.4714C5.49752 17.4714 5.32502 17.5427 5.19752 17.6702L3.63752 19.2302C3.37502 19.4927 3.37502 19.9239 3.63752 20.1864C3.70052 20.2495 3.77535 20.2995 3.85771 20.3337C3.94007 20.3678 4.02836 20.3854 4.11752 20.3854C4.20668 20.3854 4.29497 20.3678 4.37733 20.3337C4.45969 20.2995 4.53451 20.2495 4.59752 20.1864L6.15752 18.6264C6.22061 18.5634 6.27066 18.4886 6.3048 18.4062C6.33895 18.3239 6.35653 18.2356 6.35653 18.1464C6.35653 18.0572 6.33895 17.969 6.3048 17.8866C6.27066 17.8042 6.22061 17.7294 6.15752 17.6664C6.02627 17.5427 5.85752 17.4714 5.67752 17.4714ZM18.8025 17.6702C18.675 17.5427 18.5063 17.4714 18.3225 17.4714C18.1388 17.4714 17.97 17.5427 17.8425 17.6702C17.58 17.9327 17.58 18.3639 17.8425 18.6264L19.4025 20.1864C19.4656 20.2494 19.5404 20.2994 19.6227 20.3336C19.7051 20.3677 19.7934 20.3852 19.8825 20.3852C19.9717 20.3852 20.0599 20.3677 20.1423 20.3336C20.2246 20.2994 20.2995 20.2494 20.3625 20.1864C20.4256 20.1234 20.4756 20.0485 20.5097 19.9662C20.5438 19.8838 20.5613 19.7956 20.5613 19.7064C20.5613 19.6173 20.5438 19.529 20.5097 19.4466C20.4756 19.3643 20.4256 19.2894 20.3625 19.2264L18.8025 17.6702ZM23.1488 11.1489H20.9438C20.7647 11.1489 20.5931 11.22 20.4665 11.3466C20.3399 11.4732 20.2688 11.6449 20.2688 11.8239C20.2688 12.0029 20.3399 12.1746 20.4665 12.3012C20.5931 12.4278 20.7647 12.4989 20.9438 12.4989H23.1488C23.5238 12.4989 23.8275 12.1952 23.8275 11.8239C23.8275 11.4527 23.5238 11.1489 23.1488 11.1489ZM18.3225 6.18016C18.5025 6.18016 18.675 6.10891 18.8025 5.98141L20.3625 4.42141C20.4256 4.35837 20.4756 4.28354 20.5097 4.20118C20.5438 4.11882 20.5613 4.03055 20.5613 3.94141C20.5613 3.85226 20.5438 3.76399 20.5097 3.68163C20.4756 3.59927 20.4256 3.52444 20.3625 3.46141C20.2995 3.39837 20.2246 3.34837 20.1423 3.31426C20.0599 3.28014 19.9717 3.26258 19.8825 3.26258C19.7934 3.26258 19.7051 3.28014 19.6227 3.31426C19.5404 3.34837 19.4656 3.39837 19.4025 3.46141L17.8425 5.02141C17.58 5.28391 17.58 5.71516 17.8425 5.97766C17.9738 6.10891 18.1425 6.18016 18.3225 6.18016Z" fill="#2F80ED"/>
<path d="M10.17 14.3944V20.1919H13.8338V14.4394L13.83 14.3981L13.8225 14.3306C13.815 14.3156 13.8113 14.3044 13.8038 14.2969C13.8038 14.2744 13.8 14.2556 13.7888 14.2406L13.0388 12.7594L13.0163 12.7144L12.2963 11.2931C12.2691 11.2378 12.2269 11.1913 12.1745 11.1588C12.1221 11.1263 12.0617 11.1092 12 11.1094C11.8725 11.1094 11.76 11.1806 11.7038 11.2931L11.25 12.1819L10.98 12.7181L10.215 14.2294C10.2 14.2481 10.2 14.2669 10.2038 14.2669L10.185 14.3081L10.2225 14.3156L10.1738 14.3456L10.17 14.3944ZM11.6588 12.9431H12.345L12.9038 14.0531H11.1038L11.6588 12.9431ZM10.9163 12.7706C10.92 12.7631 10.9275 12.7556 10.9313 12.7481L10.9275 12.7444C10.9238 12.7519 10.92 12.7594 10.9163 12.7706Z" fill="#2F80ED"/>
</g>
<defs>
<clipPath id="clip0_3077_111277">
<rect width="24" height="24" fill="white"/>
</clipPath>
</defs>
</svg>
