<svg width="24" height="24" viewBox="0 0 24 24" fill="none" xmlns="http://www.w3.org/2000/svg">
<path fill-rule="evenodd" clip-rule="evenodd" d="M22.6875 15.5397L19.3845 13.6328L16.9152 17.9101L20.2182 19.8173C20.3043 19.867 20.4066 19.8805 20.5027 19.8548C20.5988 19.829 20.6807 19.7662 20.7304 19.6801L22.8248 16.0523C22.8495 16.0096 22.8655 15.9625 22.872 15.9137C22.8784 15.8648 22.8752 15.8152 22.8624 15.7675C22.8497 15.7199 22.8277 15.6753 22.7977 15.6362C22.7677 15.5971 22.7302 15.5643 22.6875 15.5397Z" fill="#FC6601"/>
<path d="M4.21765 10.5819L6.68703 6.30469L18.735 13.2602L16.2657 17.5378L4.21765 10.5819Z" fill="#FC6601"/>
<path fill-rule="evenodd" clip-rule="evenodd" d="M1.5225 5.78582C1.453 5.78169 1.38373 5.79698 1.32244 5.82999C1.26115 5.863 1.21025 5.91241 1.17546 5.97271C1.14066 6.033 1.12333 6.10179 1.12541 6.17137C1.12749 6.24096 1.1489 6.30859 1.18725 6.36669L3.64012 10.0818L5.96512 6.05244L1.5225 5.78582Z" fill="#FC6601"/>
<path fill-rule="evenodd" clip-rule="evenodd" d="M19.875 13.05V4.5C19.875 4.40055 19.8355 4.30518 19.7651 4.23488L16.7651 1.23487C16.6948 1.16454 16.5994 1.12502 16.5 1.125H4.5C4.40054 1.125 4.30516 1.16451 4.23484 1.23483C4.16451 1.30516 4.125 1.40054 4.125 1.5V5.19037C4.125 5.19037 6.525 5.36062 6.66525 5.4285L19.875 13.05ZM16.6564 9.375H14.4686C14.3479 9.375 14.25 9.207 14.25 9C14.25 8.793 14.3479 8.625 14.4686 8.625H16.656C16.7768 8.625 16.8746 8.793 16.8746 9C16.8746 9.207 16.7771 9.375 16.6564 9.375ZM16.5833 7.875H11.9167C11.8334 7.85375 11.7595 7.80535 11.7068 7.73745C11.654 7.66954 11.6254 7.586 11.6254 7.5C11.6254 7.414 11.654 7.33046 11.7068 7.26255C11.7595 7.19465 11.8334 7.14625 11.9167 7.125H16.5833C16.6666 7.14625 16.7405 7.19465 16.7932 7.26255C16.846 7.33046 16.8746 7.414 16.8746 7.5C16.8746 7.586 16.846 7.66954 16.7932 7.73745C16.7405 7.80535 16.6666 7.85375 16.5833 7.875ZM16.572 6.375H9.303C9.21353 6.36443 9.13175 6.31928 9.07513 6.24921C9.01851 6.17913 8.99154 6.08969 9 6C8.99154 5.91031 9.01851 5.82087 9.07513 5.75079C9.13175 5.68072 9.21353 5.63557 9.303 5.625H16.572C16.6615 5.63557 16.7433 5.68072 16.7999 5.75079C16.8565 5.82087 16.8835 5.91031 16.875 6C16.8835 6.08969 16.8565 6.17913 16.7999 6.24921C16.7433 6.31928 16.6615 6.36443 16.572 6.375ZM7.5 4.125H16.5C16.5995 4.125 16.6948 4.16451 16.7652 4.23484C16.8355 4.30516 16.875 4.40054 16.875 4.5C16.875 4.59946 16.8355 4.69484 16.7652 4.76516C16.6948 4.83549 16.5995 4.875 16.5 4.875H7.5C7.40054 4.875 7.30516 4.83549 7.23483 4.76516C7.16451 4.69484 7.125 4.59946 7.125 4.5C7.125 4.40054 7.16451 4.30516 7.23483 4.23484C7.30516 4.16451 7.40054 4.125 7.5 4.125ZM4.125 22.5C4.125 22.5995 4.16451 22.6948 4.23484 22.7652C4.30516 22.8355 4.40054 22.875 4.5 22.875H19.5C19.5995 22.875 19.6948 22.8355 19.7652 22.7652C19.8355 22.6948 19.875 22.5995 19.875 22.5V20.4855C19.8641 20.4799 4.125 11.3929 4.125 11.3929V22.5ZM7.35 14.6186H9.15C9.27412 14.6186 9.375 14.7866 9.375 14.9936C9.375 15.2006 9.27412 15.3686 9.15 15.3686H7.35C7.22588 15.3686 7.125 15.2003 7.125 14.9936C7.125 14.787 7.22588 14.6186 7.35 14.6186ZM7.44638 16.1186H11.3036C11.3931 16.1325 11.4747 16.178 11.5336 16.2467C11.5925 16.3155 11.6249 16.4031 11.6249 16.4936C11.6249 16.5842 11.5925 16.6717 11.5336 16.7405C11.4747 16.8093 11.3931 16.8547 11.3036 16.8686H7.44638C7.3569 16.8547 7.27534 16.8093 7.21643 16.7405C7.15752 16.6717 7.12514 16.5842 7.12514 16.4936C7.12514 16.4031 7.15752 16.3155 7.21643 16.2467C7.27534 16.178 7.3569 16.1325 7.44638 16.1186ZM7.46588 17.6186H14.2841C14.3836 17.6186 14.479 17.6581 14.5493 17.7285C14.6196 17.7988 14.6591 17.8942 14.6591 17.9936C14.6591 18.0931 14.6196 18.1885 14.5493 18.2588C14.479 18.3291 14.3836 18.3686 14.2841 18.3686H7.46588C7.36642 18.3686 7.27104 18.3291 7.20071 18.2588C7.13038 18.1885 7.09088 18.0931 7.09088 17.9936C7.09088 17.8942 7.13038 17.7988 7.20071 17.7285C7.27104 17.6581 7.36642 17.6186 7.46588 17.6186ZM7.5 19.1186H16.5C16.5995 19.1186 16.6948 19.1581 16.7652 19.2285C16.8355 19.2988 16.875 19.3942 16.875 19.4936C16.875 19.5931 16.8355 19.6885 16.7652 19.7588C16.6948 19.8291 16.5995 19.8686 16.5 19.8686H7.5C7.40054 19.8686 7.30516 19.8291 7.23483 19.7588C7.16451 19.6885 7.125 19.5931 7.125 19.4936C7.125 19.3942 7.16451 19.2988 7.23483 19.2285C7.30516 19.1581 7.40054 19.1186 7.5 19.1186Z" fill="#FC6601"/>
</svg>
