<svg width="24" height="24" viewBox="0 0 24 24" fill="none" xmlns="http://www.w3.org/2000/svg">
<g clip-path="url(#clip0_3077_111297)">
<path d="M23.2941 3.89798C23.2941 3.16814 22.7004 2.57445 21.9706 2.57445H20.4501V1.77361C20.4501 1.18543 19.9717 0.707031 19.3835 0.707031C18.7953 0.707031 18.3169 1.18543 18.3169 1.77361V2.57445H15.5279V1.77361C15.5279 1.18543 15.0493 0.707031 14.4611 0.707031C13.8729 0.707031 13.3945 1.18543 13.3945 1.77361V2.57445H10.6055V1.77361C10.6055 1.18543 10.1271 0.707031 9.53888 0.707031C8.9507 0.707031 8.47213 1.18543 8.47213 1.77361V2.57445H5.68307V1.77361C5.68307 1.18543 5.20466 0.707031 4.61649 0.707031C4.02831 0.707031 3.54991 1.18543 3.54991 1.77361V2.57445H2.0294C1.29956 2.57445 0.705872 3.16814 0.705872 3.89798C0.705872 11.876 0.705872 14.9421 0.705872 21.9717C0.705872 22.7016 1.29956 23.2953 2.0294 23.2953H21.9706C22.7004 23.2953 23.2941 22.7016 23.2941 21.9717C23.2941 14.9421 23.2941 11.876 23.2941 3.89798ZM1.23528 3.89798C1.23528 3.46008 1.5915 3.10386 2.0294 3.10386H3.54991V4.88305H3.23833C3.09219 4.88305 2.97362 5.00161 2.97362 5.14775C2.97362 5.29389 3.09219 5.41246 3.23833 5.41246C4.23604 5.41246 4.94331 5.41246 5.99447 5.41246C6.14061 5.41246 6.25918 5.29389 6.25918 5.14775C6.25918 5.00161 6.14061 4.88305 5.99447 4.88305H5.68307V3.10386H8.47213V4.88305H8.16072C8.01458 4.88305 7.89601 5.00161 7.89601 5.14775C7.89601 5.29389 8.01458 5.41246 8.16072 5.41246C9.15844 5.41246 9.8657 5.41246 10.9169 5.41246C11.063 5.41246 11.1816 5.29389 11.1816 5.14775C11.1816 5.00161 11.063 4.88305 10.9169 4.88305H10.6055V3.10386H13.3945V4.88305H13.0831C12.937 4.88305 12.8184 5.00161 12.8184 5.14775C12.8184 5.29389 12.937 5.41246 13.0831 5.41246C14.0808 5.41246 14.7881 5.41246 15.8393 5.41246C15.9854 5.41246 16.104 5.29389 16.104 5.14775C16.104 5.00161 15.9854 4.88305 15.8393 4.88305H15.5279V3.10386H18.3169V4.88305H18.0055C17.8594 4.88305 17.7408 5.00161 17.7408 5.14775C17.7408 5.29389 17.8594 5.41246 18.0055 5.41246C19.0001 5.41246 19.7084 5.41246 20.7617 5.41246C20.9078 5.41246 21.0264 5.29389 21.0264 5.14775C21.0264 5.00161 20.9078 4.88305 20.7617 4.88305H20.4501V3.10386H21.9706C22.4085 3.10386 22.7647 3.46008 22.7647 3.89798V7.19181H1.23528V3.89798ZM22.7647 21.9717C22.7647 22.4096 22.4085 22.7659 21.9706 22.7659H2.0294C1.5915 22.7659 1.23528 22.4096 1.23528 21.9717V7.72208H22.7647V21.9717Z" fill="#6834D4"/>
<path d="M4.85411 20.4733H19.1482C19.8753 20.4733 20.4718 19.8768 20.4718 19.1497V11.3392C20.4718 10.6086 19.8753 10.0156 19.1482 10.0156H4.85411C4.12358 10.0156 3.53058 10.6086 3.53058 11.3392V19.1497C3.53058 19.8768 4.12358 20.4733 4.85411 20.4733ZM12.437 12.9884H17.9624C18.1085 12.9884 18.2271 13.1069 18.2271 13.2531C18.2271 13.3992 18.1085 13.5178 17.9624 13.5178H12.437C12.2909 13.5178 12.1723 13.3992 12.1723 13.2531C12.1723 13.1069 12.2909 12.9884 12.437 12.9884ZM12.437 14.9797H17.9624C18.1085 14.9797 18.2271 15.0982 18.2271 15.2444C18.2271 15.3905 18.1085 15.5091 17.9624 15.5091H12.437C12.2909 15.5091 12.1723 15.3905 12.1723 15.2444C12.1723 15.0982 12.2909 14.9797 12.437 14.9797ZM12.437 16.971H17.9624C18.1085 16.971 18.2271 17.0896 18.2271 17.2357C18.2271 17.3818 18.1085 17.5004 17.9624 17.5004H12.437C12.2909 17.5004 12.1723 17.3818 12.1723 17.2357C12.1723 17.0896 12.2909 16.971 12.437 16.971ZM5.80074 14.6152C5.86709 14.411 6.04063 14.265 6.25329 14.2342L7.36123 14.0739L7.8567 13.0707C7.95182 12.8782 8.14432 12.7586 8.35888 12.7586C8.3587 12.7586 8.35905 12.7586 8.35888 12.7586C8.57361 12.7588 8.76645 12.8786 8.86141 13.0711L9.35549 14.0739L10.4633 14.2342C10.6759 14.265 10.8495 14.411 10.9158 14.6154C10.9823 14.8196 10.928 15.0396 10.7743 15.1898L9.97227 15.9718L10.1615 17.0739C10.1979 17.2855 10.1126 17.4956 9.93867 17.6219C9.76461 17.7482 9.53868 17.7646 9.34859 17.6645L8.35922 17.144L7.36743 17.6652C7.28488 17.7086 7.19545 17.73 7.10652 17.73C6.99071 17.73 6.87594 17.6938 6.7777 17.6224C6.60382 17.4961 6.51851 17.286 6.5547 17.0744L6.74427 15.9718L5.9424 15.1898C5.78851 15.0397 5.73422 14.8196 5.80074 14.6152Z" fill="#6834D4"/>
</g>
<defs>
<clipPath id="clip0_3077_111297">
<rect width="24" height="24" fill="white"/>
</clipPath>
</defs>
</svg>
