<svg width="24" height="24" viewBox="0 0 24 24" fill="none" xmlns="http://www.w3.org/2000/svg">
<path d="M1.33452 22.3052C2.43015 23.7275 4.6932 23.8197 6.38939 22.5132C7.03875 22.017 7.53522 21.3479 7.82192 20.5826C7.97425 20.2809 8.07385 19.8532 8.07385 19.364V8.41785L21.2566 5.9263V11.7062C21.2566 13.7452 19.6967 14.2139 19.1445 14.3179C19.0961 14.3237 19.0493 14.3355 19.0009 14.3442L18.9394 14.3516L18.9482 14.3545C18.2559 14.4809 17.604 14.7712 17.0469 15.2011C15.3508 16.5077 14.863 18.7195 15.9586 20.1417C17.0543 21.564 19.3173 21.6578 21.0135 20.3512C21.8718 19.6891 22.4182 18.7956 22.6086 17.8904C22.6745 17.6707 22.7214 17.429 22.7214 17.1551V2.9382C22.7214 2.84885 22.7038 2.77269 22.6965 2.68773C22.6994 2.64379 22.7214 2.59399 22.7214 2.55004V1.08529C22.7214 0.276744 22.0652 -0.18026 21.2566 0.0672837L8.07385 2.55883C7.26531 2.80491 6.6091 3.66179 6.6091 4.47034V5.93509C6.6091 5.9556 6.61935 5.97024 6.62082 5.98929C6.61935 6.03323 6.6091 6.07131 6.6091 6.11525V13.8697C6.6091 15.9115 5.04474 16.3788 4.49399 16.4813C4.46616 16.4857 4.43833 16.4945 4.40904 16.4989C4.33726 16.5106 4.29039 16.515 4.29039 16.515L4.3065 16.5223C3.62097 16.6506 2.97551 16.9392 2.42283 17.3646C0.726645 18.6711 0.240346 20.8829 1.33452 22.3052Z" fill="#FDB022"/>
</svg>
