<svg width="24" height="24" viewBox="0 0 24 24" fill="none" xmlns="http://www.w3.org/2000/svg">
<path d="M8.17297 16.0368L11.745 14.2508L8.17297 12.4648V16.0368Z" fill="#F44336"/>
<path d="M12.821 15.389L8.515 17.542C8.334 17.633 8.139 17.678 7.945 17.678C7.713 17.678 7.482 17.614 7.276 17.487C6.898 17.252 6.673 16.848 6.673 16.404V12.097C6.673 11.653 6.898 11.248 7.276 11.014C7.654 10.781 8.118 10.759 8.515 10.958L12.821 13.112C13.256 13.328 13.525 13.765 13.525 14.25C13.525 14.736 13.256 15.172 12.821 15.389ZM21.866 10.147C21.363 9.867 20.771 9.883 20.281 10.19L18.75 11.147V10.718C18.75 9.358 17.618 8.25 16.226 8.25H3.773C3.408 8.25 3.063 8.33 2.75 8.467V7.306C2.75 6.724 3.223 6.25 3.805 6.25H5C5.414 6.25 5.75 5.914 5.75 5.5C5.75 5.086 5.414 4.75 5 4.75H3.805C2.396 4.75 1.25 5.897 1.25 7.306V10.5C1.25 10.527 1.262 10.548 1.264 10.575C1.261 10.622 1.25 10.668 1.25 10.718V18.283C1.25 19.643 2.382 20.75 3.773 20.75H16.226C17.618 20.75 18.75 19.643 18.75 18.283V17.854L20.281 18.811C20.539 18.972 20.824 19.052 21.111 19.052C21.369 19.052 21.628 18.987 21.866 18.854C22.411 18.552 22.75 17.957 22.75 17.301V11.7C22.75 11.043 22.411 10.449 21.866 10.147Z" fill="#F44336"/>
<path d="M9.253 7.526H16.611C17.791 7.526 18.75 6.567 18.75 5.388C18.75 4.209 17.791 3.25 16.611 3.25H9.253C8.424 3.25 7.75 3.923 7.75 4.753V6.023C7.75 6.852 8.424 7.526 9.253 7.526Z" fill="#F44336"/>
</svg>
