<svg width="20" height="21" viewBox="0 0 20 21" fill="none" xmlns="http://www.w3.org/2000/svg">
<path d="M14.9837 9.49167V12.825C14.9837 13.0417 14.9753 13.25 14.9503 13.45C14.7587 15.7 13.4337 16.8167 10.992 16.8167H10.6587C10.4503 16.8167 10.2503 16.9167 10.1253 17.0833L9.12534 18.4167C8.68367 19.0083 7.96699 19.0083 7.52532 18.4167L6.52531 17.0833C6.41698 16.9417 6.17533 16.8167 5.99199 16.8167H5.65867C3.00033 16.8167 1.66699 16.1583 1.66699 12.825V9.49167C1.66699 7.05001 2.792 5.72501 5.03367 5.53334C5.23367 5.50834 5.442 5.5 5.65867 5.5H10.992C13.6503 5.5 14.9837 6.83334 14.9837 9.49167Z" stroke="#474747" stroke-width="1.5" stroke-miterlimit="10" stroke-linecap="round" stroke-linejoin="round"/>
<path d="M18.3165 6.15769V9.49102C18.3165 11.941 17.1915 13.2577 14.9499 13.4494C14.9749 13.2494 14.9832 13.041 14.9832 12.8244V9.49102C14.9832 6.83269 13.6499 5.49935 10.9915 5.49935H5.6582C5.44154 5.49935 5.2332 5.50769 5.0332 5.53269C5.22487 3.29102 6.54987 2.16602 8.99154 2.16602H14.3249C16.9832 2.16602 18.3165 3.49936 18.3165 6.15769Z" stroke="#474747" stroke-width="1.5" stroke-miterlimit="10" stroke-linecap="round" stroke-linejoin="round"/>
<path d="M11.2459 11.5417H11.2534" stroke="#474747" stroke-width="2" stroke-linecap="round" stroke-linejoin="round"/>
<path d="M8.32991 11.5417H8.33741" stroke="#474747" stroke-width="2" stroke-linecap="round" stroke-linejoin="round"/>
<path d="M5.41292 11.5417H5.42042" stroke="#474747" stroke-width="2" stroke-linecap="round" stroke-linejoin="round"/>
</svg>
