<svg width="20" height="21" viewBox="0 0 20 21" fill="none" xmlns="http://www.w3.org/2000/svg">
<path d="M6.66636 18.8333H13.333C16.683 18.8333 17.283 17.4917 17.458 15.8583L18.083 9.19167C18.308 7.15833 17.7247 5.5 14.1664 5.5H5.83303C2.27469 5.5 1.69136 7.15833 1.91636 9.19167L2.54136 15.8583C2.71636 17.4917 3.31636 18.8333 6.66636 18.8333Z" stroke="#474747" stroke-width="1.5" stroke-miterlimit="10" stroke-linecap="round" stroke-linejoin="round"/>
<path d="M6.66699 5.49935V4.83268C6.66699 3.35768 6.66699 2.16602 9.33366 2.16602H10.667C13.3337 2.16602 13.3337 3.35768 13.3337 4.83268V5.49935" stroke="#474747" stroke-width="1.5" stroke-miterlimit="10" stroke-linecap="round" stroke-linejoin="round"/>
<path d="M11.6663 11.3333V12.1667C11.6663 12.175 11.6663 12.175 11.6663 12.1833C11.6663 13.0917 11.658 13.8333 9.99967 13.8333C8.34967 13.8333 8.33301 13.1 8.33301 12.1917V11.3333C8.33301 10.5 8.33301 10.5 9.16634 10.5H10.833C11.6663 10.5 11.6663 10.5 11.6663 11.3333Z" stroke="#474747" stroke-width="1.5" stroke-miterlimit="10" stroke-linecap="round" stroke-linejoin="round"/>
<path d="M18.042 9.66602C16.117 11.066 13.917 11.8993 11.667 12.1827" stroke="#474747" stroke-width="1.5" stroke-miterlimit="10" stroke-linecap="round" stroke-linejoin="round"/>
<path d="M2.18359 9.89258C4.05859 11.1759 6.17526 11.9509 8.33359 12.1926" stroke="#474747" stroke-width="1.5" stroke-miterlimit="10" stroke-linecap="round" stroke-linejoin="round"/>
</svg>
