<svg width="20" height="21" viewBox="0 0 20 21" fill="none" xmlns="http://www.w3.org/2000/svg">
<path d="M15 16.2174H14.3667C13.7 16.2174 13.0667 16.4758 12.6 16.9424L11.175 18.3508C10.525 18.9924 9.46668 18.9924 8.81668 18.3508L7.39166 16.9424C6.925 16.4758 6.28333 16.2174 5.625 16.2174H5C3.61667 16.2174 2.5 15.1091 2.5 13.7425V4.65076C2.5 3.28409 3.61667 2.17578 5 2.17578H15C16.3833 2.17578 17.5 3.28409 17.5 4.65076V13.7425C17.5 15.1008 16.3833 16.2174 15 16.2174Z" stroke="#474747" stroke-width="1.5" stroke-miterlimit="10" stroke-linecap="round" stroke-linejoin="round"/>
<path d="M10.0003 8.83253C11.0726 8.83253 11.942 7.9632 11.942 6.89085C11.942 5.8185 11.0726 4.94922 10.0003 4.94922C8.92792 4.94922 8.05859 5.8185 8.05859 6.89085C8.05859 7.9632 8.92792 8.83253 10.0003 8.83253Z" stroke="#474747" stroke-width="1.5" stroke-linecap="round" stroke-linejoin="round"/>
<path d="M13.3337 13.5487C13.3337 12.0487 11.842 10.832 10.0003 10.832C8.15866 10.832 6.66699 12.0487 6.66699 13.5487" stroke="#474747" stroke-width="1.5" stroke-linecap="round" stroke-linejoin="round"/>
</svg>
