<svg width="16" height="16" viewBox="0 0 16 16" fill="none" xmlns="http://www.w3.org/2000/svg">
<path d="M6.66699 12.6667C6.66699 13.4 7.26699 14 8.00033 14C8.73366 14 9.33366 13.4 9.33366 12.6667C9.33366 11.9333 8.73366 11.3333 8.00033 11.3333C7.26699 11.3333 6.66699 11.9333 6.66699 12.6667Z" stroke="#0A0A0A" stroke-width="1.5"/>
<path d="M6.66699 8.00065C6.66699 8.73398 7.26699 9.33398 8.00033 9.33398C8.73366 9.33398 9.33366 8.73398 9.33366 8.00065C9.33366 7.26732 8.73366 6.66732 8.00033 6.66732C7.26699 6.66732 6.66699 7.26732 6.66699 8.00065Z" stroke="#0A0A0A" stroke-width="1.5"/>
<path d="M6.66699 3.33268C6.66699 4.06602 7.26699 4.66602 8.00033 4.66602C8.73366 4.66602 9.33366 4.06602 9.33366 3.33268C9.33366 2.59935 8.73366 1.99935 8.00033 1.99935C7.26699 1.99935 6.66699 2.59935 6.66699 3.33268Z" stroke="#0A0A0A" stroke-width="1.5"/>
</svg>
