<svg width="20" height="21" viewBox="0 0 20 21" fill="none" xmlns="http://www.w3.org/2000/svg">
<path d="M10 13C11.3807 13 12.5 11.8807 12.5 10.5C12.5 9.11929 11.3807 8 10 8C8.61929 8 7.5 9.11929 7.5 10.5C7.5 11.8807 8.61929 13 10 13Z" stroke="currentColor" stroke-width="1.5" stroke-miterlimit="10" stroke-linecap="round" stroke-linejoin="round"/>
<path d="M1.66699 11.2339V9.76718C1.66699 8.90052 2.37533 8.18385 3.25033 8.18385C4.75866 8.18385 5.37533 7.11718 4.61699 5.80885C4.18366 5.05885 4.44199 4.08385 5.20033 3.65052L6.64199 2.82552C7.30033 2.43385 8.15033 2.66718 8.54199 3.32552L8.63366 3.48385C9.38366 4.79218 10.617 4.79218 11.3753 3.48385L11.467 3.32552C11.8587 2.66718 12.7087 2.43385 13.367 2.82552L14.8087 3.65052C15.567 4.08385 15.8253 5.05885 15.392 5.80885C14.6337 7.11718 15.2503 8.18385 16.7587 8.18385C17.6253 8.18385 18.342 8.89218 18.342 9.76718V11.2339C18.342 12.1005 17.6337 12.8172 16.7587 12.8172C15.2503 12.8172 14.6337 13.8838 15.392 15.1922C15.8253 15.9505 15.567 16.9172 14.8087 17.3505L13.367 18.1755C12.7087 18.5672 11.8587 18.3339 11.467 17.6755L11.3753 17.5172C10.6253 16.2089 9.39199 16.2089 8.63366 17.5172L8.54199 17.6755C8.15033 18.3339 7.30033 18.5672 6.64199 18.1755L5.20033 17.3505C4.44199 16.9172 4.18366 15.9422 4.61699 15.1922C5.37533 13.8838 4.75866 12.8172 3.25033 12.8172C2.37533 12.8172 1.66699 12.1005 1.66699 11.2339Z" stroke="currentColor" stroke-width="1.5" stroke-miterlimit="10" stroke-linecap="round" stroke-linejoin="round"/>
</svg>
