<svg width="16" height="16" viewBox="0 0 16 16" fill="none" xmlns="http://www.w3.org/2000/svg">
<path d="M11.9996 10.2394C11.2316 10.2394 10.5436 10.6074 10.1116 11.1674L6.22361 8.91136C6.46361 8.31936 6.46361 7.66336 6.22361 7.07136L10.1116 4.81536C10.5436 5.37536 11.2316 5.74336 11.9996 5.74336C13.3276 5.74336 14.3996 4.67136 14.3996 3.34336C14.3996 2.01536 13.3276 0.943359 11.9996 0.943359C10.6716 0.943359 9.59961 2.01536 9.59961 3.34336C9.59961 3.66336 9.66361 3.98336 9.77561 4.25536L5.88761 6.52736C5.43961 5.96736 4.76761 5.59936 3.99961 5.59936C2.67161 5.59936 1.59961 6.67136 1.59961 7.99936C1.59961 9.32736 2.67161 10.3994 3.99961 10.3994C4.76761 10.3994 5.45561 10.0314 5.88761 9.47136L9.77561 11.7274C9.66361 11.9994 9.59961 12.3194 9.59961 12.6394C9.59961 13.9674 10.6716 15.0394 11.9996 15.0394C13.3276 15.0394 14.3996 13.9674 14.3996 12.6394C14.3996 11.3114 13.3276 10.2394 11.9996 10.2394ZM11.9996 1.59936C12.9756 1.59936 13.7596 2.38336 13.7596 3.35936C13.7596 4.33536 12.9756 5.11936 11.9996 5.11936C11.0236 5.11936 10.2396 4.33536 10.2396 3.35936C10.2396 2.38336 11.0236 1.59936 11.9996 1.59936ZM3.99961 9.75936C3.02361 9.75936 2.23961 8.97536 2.23961 7.99936C2.23961 7.02336 3.02361 6.23936 3.99961 6.23936C4.97561 6.23936 5.75961 7.02336 5.75961 7.99936C5.75961 8.97536 4.97561 9.75936 3.99961 9.75936ZM11.9996 14.3994C11.0236 14.3994 10.2396 13.6154 10.2396 12.6394C10.2396 11.6634 11.0236 10.8794 11.9996 10.8794C12.9756 10.8794 13.7596 11.6634 13.7596 12.6394C13.7596 13.6154 12.9756 14.3994 11.9996 14.3994Z" fill="#0A0A0A" stroke="#0A0A0A" stroke-width="0.5"/>
</svg>
