<svg width="18" height="19" viewBox="0 0 18 19" fill="none" xmlns="http://www.w3.org/2000/svg">
<path d="M8.06265 2.33773C8.58015 1.89523 9.42765 1.89523 9.95265 2.33773L11.1377 3.35781C11.3627 3.55281 11.7826 3.71029 12.0826 3.71029H13.3577C14.1527 3.71029 14.8051 4.36274 14.8051 5.15774V6.4328C14.8051 6.7253 14.9626 7.1528 15.1576 7.3778L16.1777 8.56277C16.6202 9.08027 16.6202 9.92779 16.1777 10.4528L15.1576 11.6378C14.9626 11.8628 14.8051 12.2828 14.8051 12.5828V13.8578C14.8051 14.6528 14.1527 15.3053 13.3577 15.3053H12.0826C11.7901 15.3053 11.3627 15.4627 11.1377 15.6577L9.95265 16.6777C9.43515 17.1202 8.58765 17.1202 8.06265 16.6777L6.87766 15.6577C6.65266 15.4627 6.23266 15.3053 5.93266 15.3053H4.63515C3.84015 15.3053 3.18765 14.6528 3.18765 13.8578V12.5753C3.18765 12.2828 3.03016 11.8628 2.84266 11.6378L1.83016 10.4453C1.39516 9.92778 1.39516 9.08778 1.83016 8.57028L2.84266 7.3778C3.03016 7.1528 3.18765 6.7328 3.18765 6.4403V5.15774C3.18765 4.36274 3.84015 3.71029 4.63515 3.71029H5.93266C6.22516 3.71029 6.65266 3.55281 6.87766 3.35781L8.06265 2.33773Z" stroke="#0A0A0A" stroke-width="1.25" stroke-linecap="round" stroke-linejoin="round"/>
<path d="M7.41736 11.6155L8.50484 12.4555C8.64734 12.598 8.96236 12.6655 9.17236 12.6655H10.4998C10.9198 12.6655 11.3773 12.3505 11.4823 11.9305L12.3223 9.36548C12.4948 8.87798 12.1799 8.4505 11.6549 8.4505H10.2524C10.0424 8.4505 9.86986 8.27805 9.89986 8.03055L10.0723 6.90555C10.1398 6.59055 9.92985 6.23802 9.61485 6.13302C9.33735 6.02802 8.98485 6.17049 8.84235 6.38049L7.40234 8.51797" stroke="#0A0A0A" stroke-miterlimit="10"/>
<path d="M5.625 11.6161V8.18118C5.625 7.68618 5.835 7.51367 6.33 7.51367H6.6825C7.17 7.51367 7.3875 7.68618 7.3875 8.18118V11.6161C7.3875 12.1036 7.1775 12.2837 6.6825 12.2837H6.33C5.835 12.2837 5.625 12.1111 5.625 11.6161Z" stroke="#0A0A0A" stroke-linecap="round" stroke-linejoin="round"/>
</svg>
