<svg width="18" height="18" viewBox="0 0 18 18" fill="none" xmlns="http://www.w3.org/2000/svg">
<path fill-rule="evenodd" clip-rule="evenodd" d="M9.00288 0.466309C6.68535 0.466309 6.3945 0.476442 5.48427 0.517865C4.57582 0.559465 3.95572 0.703289 3.41314 0.914313C2.85189 1.13227 2.37579 1.42383 1.90148 1.89832C1.4268 2.37264 1.13525 2.84873 0.916577 3.40981C0.705019 3.95257 0.561018 4.57284 0.520128 5.48094C0.479417 6.39117 0.46875 6.6822 0.46875 8.99973C0.46875 11.3173 0.479061 11.6072 0.520306 12.5175C0.562084 13.4259 0.705908 14.046 0.916755 14.5886C1.13489 15.1498 1.42645 15.6259 1.90094 16.1002C2.37508 16.5749 2.85117 16.8672 3.41207 17.0851C3.95501 17.2962 4.57528 17.44 5.48356 17.4816C6.39379 17.523 6.68446 17.5332 9.00182 17.5332C11.3195 17.5332 11.6095 17.523 12.5197 17.4816C13.4282 17.44 14.049 17.2962 14.5919 17.0851C15.153 16.8672 15.6284 16.5749 16.1025 16.1002C16.5772 15.6259 16.8687 15.1498 17.0874 14.5888C17.2972 14.046 17.4412 13.4257 17.4839 12.5176C17.5247 11.6074 17.5354 11.3173 17.5354 8.99973C17.5354 6.6822 17.5247 6.39135 17.4839 5.48112C17.4412 4.57266 17.2972 3.95257 17.0874 3.40998C16.8687 2.84873 16.5772 2.37264 16.1025 1.89832C15.6278 1.42365 15.1532 1.13209 14.5914 0.914313C14.0474 0.703289 13.4269 0.559465 12.5185 0.517865C11.6082 0.476442 11.3185 0.466309 9.00022 0.466309H9.00288ZM8.71889 2.004H8.71903L9.00344 2.00409C11.2819 2.00409 11.5519 2.01226 12.4517 2.05315C13.2837 2.0912 13.7352 2.23022 14.036 2.34702C14.4343 2.50169 14.7182 2.68658 15.0167 2.98525C15.3153 3.28392 15.5002 3.56837 15.6552 3.9666C15.772 4.26704 15.9112 4.7186 15.9491 5.55061C15.99 6.45018 15.9989 6.7204 15.9989 8.99776C15.9989 11.2751 15.99 11.5453 15.9491 12.4449C15.9111 13.2769 15.772 13.7285 15.6552 14.0289C15.5006 14.4271 15.3153 14.7107 15.0167 15.0092C14.718 15.3079 14.4344 15.4928 14.036 15.6474C13.7356 15.7648 13.2837 15.9034 12.4517 15.9415C11.5521 15.9824 11.2819 15.9913 9.00344 15.9913C6.72484 15.9913 6.45479 15.9824 5.55523 15.9415C4.72322 15.9031 4.27166 15.7641 3.97068 15.6473C3.57245 15.4926 3.288 15.3077 2.98933 15.009C2.69066 14.7104 2.50577 14.4266 2.35075 14.0282C2.23395 13.7278 2.09475 13.2762 2.05688 12.4442C2.01599 11.5446 2.00781 11.2744 2.00781 8.99563C2.00781 6.71685 2.01599 6.44804 2.05688 5.54848C2.09492 4.71647 2.23395 4.26491 2.35075 3.96411C2.50542 3.56588 2.69066 3.28143 2.98933 2.98276C3.288 2.68409 3.57245 2.4992 3.97068 2.34418C4.27148 2.22684 4.72322 2.08818 5.55523 2.04995C6.34244 2.0144 6.64751 2.00373 8.23792 2.00195V2.00409C8.38652 2.00385 8.54638 2.00393 8.71889 2.004ZM12.5312 4.44442C12.5312 3.8789 12.9899 3.42077 13.5553 3.42077V3.42041C14.1206 3.42041 14.5793 3.87908 14.5793 4.44442C14.5793 5.00976 14.1206 5.46843 13.5553 5.46843C12.9899 5.46843 12.5312 5.00976 12.5312 4.44442ZM8.99928 4.61768C6.57924 4.61777 4.61719 6.57989 4.61719 8.99994C4.61719 11.4201 6.57934 13.3813 8.99945 13.3813C11.4196 13.3813 13.381 11.4201 13.381 8.99994C13.381 6.57983 11.4194 4.61768 8.99928 4.61768ZM11.8452 8.99975C11.8452 7.42871 10.5716 6.15527 9.00072 6.15527C7.42969 6.15527 6.15625 7.42871 6.15625 8.99975C6.15625 10.5706 7.42969 11.8442 9.00072 11.8442C10.5716 11.8442 11.8452 10.5706 11.8452 8.99975Z" fill="white"/>
</svg>
