<svg width="24" height="24" viewBox="0 0 24 24" fill="none" xmlns="http://www.w3.org/2000/svg">
<mask id="mask0_3418_38502" style="mask-type:alpha" maskUnits="userSpaceOnUse" x="1" y="1" width="22" height="22">
<path d="M7.53418 1.35902C6.39923 1.41259 5.62405 1.59438 4.94667 1.8598C4.24545 2.13317 3.65103 2.49952 3.0597 3.09327C2.46769 3.68736 2.10411 4.28284 1.83283 4.98476C1.57017 5.66388 1.39218 6.43942 1.34206 7.57507C1.2923 8.71281 1.28089 9.07569 1.28644 11.9722C1.29196 14.8684 1.30474 15.232 1.359 16.37C1.41325 17.5047 1.59436 18.2795 1.85979 18.9572C2.1335 19.6585 2.49948 20.2526 3.09356 20.8442C3.68731 21.4359 4.28312 21.7991 4.98538 22.0708C5.6638 22.3331 6.43967 22.5118 7.57498 22.5616C8.71269 22.6117 9.07591 22.6227 11.9717 22.6172C14.8689 22.6117 15.2321 22.5989 16.3698 22.545C17.5048 22.4907 18.2793 22.3089 18.9573 22.0442C19.6586 21.7698 20.253 21.4045 20.8443 20.8104C21.4356 20.2166 21.7992 19.6208 22.0705 18.9185C22.3332 18.2401 22.5118 17.4642 22.5612 16.3296C22.611 15.1912 22.6228 14.8276 22.6172 11.9314C22.6117 9.03491 22.5986 8.67203 22.5447 7.53465C22.4908 6.39898 22.309 5.62449 22.0439 4.9464C21.7698 4.24518 21.4042 3.65142 20.8104 3.0594C20.2167 2.46807 19.6209 2.1038 18.9186 1.8332C18.2399 1.57053 17.4643 1.39151 16.329 1.34243C15.1913 1.29197 14.8281 1.28092 11.9313 1.28645C9.03513 1.29197 8.67192 1.30442 7.53418 1.35902ZM7.65861 20.6417C6.61869 20.5964 6.05399 20.4236 5.67763 20.2788C5.17927 20.086 4.82365 19.8548 4.44936 19.4833C4.07577 19.1103 3.84386 18.7557 3.6493 18.2584C3.50309 17.8821 3.32719 17.318 3.27847 16.2781C3.22559 15.1539 3.2135 14.8165 3.20831 11.9684C3.20278 9.12097 3.21314 8.78365 3.26222 7.65837C3.3068 6.61913 3.48065 6.05372 3.6251 5.6777C3.81794 5.17865 4.04845 4.82371 4.42067 4.44943C4.79357 4.07513 5.14815 3.84392 5.64582 3.64935C6.02184 3.50246 6.58587 3.32793 7.62543 3.27852C8.75036 3.22528 9.08731 3.21388 11.9347 3.20836C14.7828 3.20282 15.1201 3.21285 16.2454 3.26227C17.2846 3.30754 17.85 3.47966 18.2257 3.62515C18.7244 3.818 19.08 4.04783 19.454 4.42074C19.8279 4.79365 20.0598 5.14755 20.2544 5.64625C20.4012 6.02123 20.5758 6.58595 20.6249 7.62519C20.6784 8.75014 20.6905 9.08744 20.6957 11.9349C20.7012 14.783 20.6909 15.1203 20.6414 16.2449C20.5962 17.2848 20.4237 17.8499 20.2786 18.2266C20.0857 18.7246 19.8552 19.0803 19.4826 19.4546C19.1101 19.8275 18.7555 20.0601 18.2575 20.2546C17.8822 20.4012 17.3175 20.576 16.2786 20.6255C15.1537 20.6783 14.8167 20.6904 11.9682 20.6956C9.12084 20.7012 8.78388 20.6904 7.65861 20.6417ZM16.3543 6.25003C16.3556 6.95645 16.93 7.52843 17.6364 7.52704C18.3432 7.52566 18.9152 6.95161 18.9141 6.24519C18.9127 5.53877 18.3384 4.96646 17.6316 4.96784C16.9249 4.96922 16.3529 5.54361 16.3543 6.25003ZM6.47494 11.9622C6.4808 14.9873 8.93768 17.4342 11.962 17.4283C14.9867 17.4224 17.435 14.9662 17.4291 11.9411C17.4232 8.91707 14.966 6.46879 11.9409 6.47467C8.91658 6.48054 6.46905 8.9378 6.47494 11.9622ZM8.39612 11.9584C8.39266 9.995 9.98174 8.40004 11.9447 8.39658C13.9081 8.39278 15.5034 9.98118 15.5072 11.9449C15.511 13.9086 13.9219 15.5033 11.9582 15.5071C9.99522 15.5109 8.39991 13.9221 8.39612 11.9584Z" fill="#000008"/>
</mask>
<g mask="url(#mask0_3418_38502)">
<rect x="0.391602" y="0.390625" width="23.2267" height="23.2267" fill="url(#paint0_radial_3418_38502)"/>
<g filter="url(#filter0_f_3418_38502)">
<ellipse cx="4.73848" cy="-0.492988" rx="13.4" ry="9.38" transform="rotate(-14.9317 4.73848 -0.492988)" fill="#7334FF"/>
</g>
<g filter="url(#filter1_f_3418_38502)">
<circle cx="22.8743" cy="0.54032" r="12.6556" fill="#B202F5"/>
</g>
<g filter="url(#filter2_f_3418_38502)">
<circle cx="4.85858" cy="21.2365" r="7.14667" fill="#FFB401"/>
</g>
</g>
<defs>
<filter id="filter0_f_3418_38502" x="-45.2855" y="-47.0434" width="100.048" height="93.1023" filterUnits="userSpaceOnUse" color-interpolation-filters="sRGB">
<feFlood flood-opacity="0" result="BackgroundImageFix"/>
<feBlend mode="normal" in="SourceGraphic" in2="BackgroundImageFix" result="shape"/>
<feGaussianBlur stdDeviation="18.425" result="effect1_foregroundBlur_3418_38502"/>
</filter>
<filter id="filter1_f_3418_38502" x="-34.4479" y="-56.7819" width="114.645" height="114.644" filterUnits="userSpaceOnUse" color-interpolation-filters="sRGB">
<feFlood flood-opacity="0" result="BackgroundImageFix"/>
<feBlend mode="normal" in="SourceGraphic" in2="BackgroundImageFix" result="shape"/>
<feGaussianBlur stdDeviation="22.3333" result="effect1_foregroundBlur_3418_38502"/>
</filter>
<filter id="filter2_f_3418_38502" x="-38.0214" y="-21.6435" width="85.7596" height="85.7596" filterUnits="userSpaceOnUse" color-interpolation-filters="sRGB">
<feFlood flood-opacity="0" result="BackgroundImageFix"/>
<feBlend mode="normal" in="SourceGraphic" in2="BackgroundImageFix" result="shape"/>
<feGaussianBlur stdDeviation="17.8667" result="effect1_foregroundBlur_3418_38502"/>
</filter>
<radialGradient id="paint0_radial_3418_38502" cx="0" cy="0" r="1" gradientUnits="userSpaceOnUse" gradientTransform="translate(9.62271 22.5751) rotate(-61.8868) scale(12.3227)">
<stop stop-color="#FFD502"/>
<stop offset="0.869374" stop-color="#FF1154"/>
</radialGradient>
</defs>
</svg>
