<svg width="27" height="24" viewBox="0 0 27 24" fill="none" xmlns="http://www.w3.org/2000/svg">
<path d="M24.7423 19.7784C24.3604 19.782 23.9955 19.9368 23.7274 20.2088C23.4593 20.4808 23.3099 20.8478 23.3117 21.2297C23.3135 21.6117 23.4665 21.9773 23.7372 22.2467C24.0079 22.5161 24.3743 22.6673 24.7562 22.6673C25.1381 22.6673 25.5045 22.5161 25.7752 22.2467C26.0458 21.9773 26.1989 21.6117 26.2007 21.2297C26.2025 20.8478 26.0531 20.4808 25.785 20.2088C25.5169 19.9368 25.152 19.782 24.7701 19.7784H24.7423ZM24.7423 22.5019C24.4918 22.5061 24.2457 22.4359 24.0351 22.3002C23.8245 22.1645 23.6589 21.9694 23.5592 21.7396C23.4595 21.5098 23.4302 21.2556 23.475 21.0091C23.5197 20.7626 23.6366 20.5349 23.8108 20.3548C23.9849 20.1748 24.2086 20.0504 24.4535 19.9974C24.6983 19.9445 24.9534 19.9653 25.1864 20.0573C25.4194 20.1493 25.6199 20.3084 25.7625 20.5143C25.9052 20.7203 25.9835 20.9639 25.9877 21.2144V21.2356C25.9947 21.5642 25.8709 21.8821 25.6436 22.1195C25.4162 22.3568 25.1039 22.4942 24.7753 22.5013H24.7426M19.1974 19.3837H16.0585V14.4682C16.0585 13.296 16.0376 11.7871 14.426 11.7871C12.7912 11.7871 12.5411 13.0642 12.5411 14.3828V19.3834H9.40225V9.27504H12.4155V10.6564H12.4577C12.7593 10.1408 13.195 9.71668 13.7186 9.42914C14.2421 9.1416 14.8339 9.00145 15.4308 9.0236C18.6121 9.0236 19.1987 11.1162 19.1987 13.8384L19.1974 19.3837ZM5.86061 7.8933C5.50035 7.89336 5.14816 7.78659 4.84858 7.5865C4.549 7.3864 4.31548 7.10197 4.17756 6.76915C4.03963 6.43634 4.0035 6.07011 4.07372 5.71676C4.14394 5.36341 4.31736 5.03882 4.57205 4.78403C4.82675 4.52924 5.15128 4.3557 5.5046 4.28535C5.85792 4.21501 6.22418 4.25101 6.55704 4.38882C6.8899 4.52662 7.17442 4.76004 7.37462 5.05955C7.57482 5.35906 7.68171 5.71121 7.68178 6.07147C7.68182 6.31067 7.63475 6.54754 7.54326 6.76855C7.45176 6.98956 7.31762 7.19039 7.14851 7.35956C6.9794 7.52873 6.77862 7.66294 6.55764 7.75452C6.33666 7.8461 6.09981 7.89325 5.86061 7.8933ZM7.43002 19.3837H4.28792V9.27504H7.43002V19.3837ZM20.7622 1.33543H2.71066C2.30094 1.3308 1.90615 1.48903 1.61303 1.77534C1.31992 2.06165 1.15246 2.45262 1.14746 2.86234V20.9888C1.15229 21.3987 1.31964 21.7899 1.61275 22.0765C1.90585 22.3631 2.30074 22.5217 2.71066 22.5173H20.7622C21.1729 22.5225 21.5689 22.3644 21.8632 22.0778C22.1574 21.7912 22.3259 21.3995 22.3316 20.9888V2.86103C22.3257 2.4505 22.1572 2.05909 21.8629 1.77279C21.5686 1.48648 21.1727 1.3287 20.7622 1.33412M24.9715 21.3144C25.0252 21.315 25.0785 21.3044 25.1281 21.2835C25.1776 21.2626 25.2223 21.2317 25.2594 21.1928C25.2965 21.1539 25.3252 21.1078 25.3437 21.0574C25.3622 21.0069 25.3702 20.9532 25.3671 20.8995C25.3671 20.6052 25.1896 20.4646 24.8253 20.4646H24.2368V22.0053H24.4582V21.3337H24.7302L24.7364 21.3419L25.1585 22.0053H25.3952L24.9411 21.3187L24.9715 21.3144ZM24.7155 21.1601H24.4588V20.6392H24.7841C24.9522 20.6392 25.1438 20.6667 25.1438 20.8868C25.1438 21.1398 24.9499 21.1601 24.7142 21.1601" fill="#2867B2"/>
</svg>
