<svg width="40" height="40" viewBox="0 0 40 40" fill="none" xmlns="http://www.w3.org/2000/svg">
<path d="M21.9697 20.0299C21.9697 25.0879 17.8971 29.1883 12.8737 29.1883C7.8502 29.1883 3.77734 25.0879 3.77734 20.0299C3.77734 14.9718 7.8499 10.8711 12.8737 10.8711C17.8975 10.8711 21.9697 14.9718 21.9697 20.0299Z" fill="#000008"/>
<path d="M31.9483 20.0298C31.9483 24.7909 29.9121 28.6521 27.4002 28.6521C24.8883 28.6521 22.852 24.7909 22.852 20.0298C22.852 15.2687 24.888 11.4076 27.3999 11.4076C29.9117 11.4076 31.9483 15.2675 31.9483 20.0298Z" fill="#000008"/>
<path d="M34.43 27.7539C35.3136 27.7539 36.0296 24.2945 36.0296 20.0297C36.0296 15.7637 35.3133 12.3056 34.43 12.3056C33.5468 12.3056 32.8307 15.764 32.8307 20.0297C32.8307 24.2954 33.5465 27.7539 34.43 27.7539Z" fill="#000008"/>
</svg>
