<svg width="24" height="24" viewBox="0 0 24 24" fill="none" xmlns="http://www.w3.org/2000/svg">
<path d="M22.2195 6.88023C21.9742 5.95648 21.2514 5.22884 20.3335 4.98193C18.6698 4.5332 11.9987 4.5332 11.9987 4.5332C11.9987 4.5332 5.32755 4.5332 3.66379 4.98193C2.74597 5.22884 2.02306 5.95648 1.77773 6.88023C1.33203 8.55478 1.33203 12.0484 1.33203 12.0484C1.33203 12.0484 1.33203 15.542 1.77773 17.2166C2.02306 18.1403 2.74597 18.8679 3.66379 19.1149C5.32755 19.5635 11.9987 19.5635 11.9987 19.5635C11.9987 19.5635 18.6698 19.5635 20.3335 19.1149C21.2514 18.8679 21.9742 18.1403 22.2195 17.2166C22.6654 15.542 22.6654 12.0484 22.6654 12.0484C22.6654 12.0484 22.6654 8.55478 22.2195 6.88023Z" fill="#ED1F24"/>
<path d="M9.81641 15.2208L15.3922 12.049L9.81641 8.87695V15.2208Z" fill="white"/>
</svg>
